<?xml version="1.0" encoding="UTF-8" standalone="no"?>
<svg
   xmlns:dc="http://purl.org/dc/elements/1.1/"
   xmlns:cc="http://creativecommons.org/ns#"
   xmlns:rdf="http://www.w3.org/1999/02/22-rdf-syntax-ns#"
   xmlns:svg="http://www.w3.org/2000/svg"
   xmlns="http://www.w3.org/2000/svg"
   xmlns:sodipodi="http://sodipodi.sourceforge.net/DTD/sodipodi-0.dtd"
   xmlns:inkscape="http://www.inkscape.org/namespaces/inkscape"
   width="1920"
   height="1080"
   viewBox="0 0 507.99999 285.75001"
   version="1.1"
   id="svg8"
   inkscape:version="1.0.2 (e86c870879, 2021-01-15, custom)"
   sodipodi:docname="background2.svg">
  <defs
     id="defs2">
    <filter
       inkscape:collect="always"
       style="color-interpolation-filters:sRGB"
       id="filter1571"
       x="-0.18987775"
       width="1.3797555"
       y="-0.1383369"
       height="1.2766738">
      <feGaussianBlur
         inkscape:collect="always"
         stdDeviation="7.9489679"
         id="feGaussianBlur1573" />
    </filter>
    <filter
       inkscape:collect="always"
       style="color-interpolation-filters:sRGB"
       id="filter1625"
       x="-0.21079971"
       width="1.4215994"
       y="-0.13933362"
       height="1.2786672">
      <feGaussianBlur
         inkscape:collect="always"
         stdDeviation="7.1813329"
         id="feGaussianBlur1627" />
    </filter>
    <filter
       inkscape:collect="always"
       style="color-interpolation-filters:sRGB"
       id="filter1723"
       x="-0.72065428"
       width="2.4413086"
       y="-0.23668278"
       height="1.4733656">
      <feGaussianBlur
         inkscape:collect="always"
         stdDeviation="11.740643"
         id="feGaussianBlur1725" />
    </filter>
    <filter
       inkscape:collect="always"
       style="color-interpolation-filters:sRGB"
       id="filter1861"
       x="-0.13922911"
       width="1.2784582"
       y="-0.14155128"
       height="1.2831026">
      <feGaussianBlur
         inkscape:collect="always"
         stdDeviation="5.7809655"
         id="feGaussianBlur1863" />
    </filter>
  </defs>
  <sodipodi:namedview
     id="base"
     pagecolor="#ffffff"
     bordercolor="#666666"
     borderopacity="1.0"
     inkscape:pageopacity="0.0"
     inkscape:pageshadow="2"
     inkscape:zoom="0.67159905"
     inkscape:cx="1162.9906"
     inkscape:cy="585.00301"
     inkscape:document-units="px"
     inkscape:current-layer="layer1"
     inkscape:document-rotation="0"
     showgrid="false"
     units="px"
     showborder="false"
     inkscape:window-width="1920"
     inkscape:window-height="986"
     inkscape:window-x="-11"
     inkscape:window-y="-11"
     inkscape:window-maximized="1"
     fit-margin-top="0"
     fit-margin-left="0"
     fit-margin-right="0"
     fit-margin-bottom="0" />
  <metadata
     id="metadata5">
    <rdf:RDF>
      <cc:Work
         rdf:about="">
        <dc:format>image/svg+xml</dc:format>
        <dc:type
           rdf:resource="http://purl.org/dc/dcmitype/StillImage" />
        <dc:title></dc:title>
      </cc:Work>
    </rdf:RDF>
  </metadata>
  <g
     inkscape:label="Layer 1"
     inkscape:groupmode="layer"
     id="layer1"
     transform="translate(33.092659,-68.549088)">
    <path
       id="path1505"
       style="fill:#005fff;stroke-width:1.45395;fill-opacity:1;filter:url(#filter1571)"
       sodipodi:type="inkscape:offset"
       inkscape:radius="-0.31365156"
       inkscape:original="M 203.70117 85.814453 C 203.37941 85.808899 202.99737 85.885918 202.51172 86.007812 C 201.35422 86.298317 200.25459 86.688768 200.06836 86.875 C 199.88207 87.06127 200.48691 88.77143 201.41211 90.675781 C 202.33734 92.580152 203.09375 94.296157 203.09375 94.488281 C 203.09375 94.680445 199.85871 97.412412 195.9043 100.56055 C 187.90373 106.92989 187.73648 107.28958 187.70898 118.22461 C 187.7025 120.80773 187.44339 123.28408 187.13281 123.72852 C 186.82223 124.17298 185.01171 125.12623 183.10938 125.8457 C 178.79671 127.47677 171.3041 131.73963 171.82812 132.26367 C 172.04271 132.47823 173.02434 132.21505 174.01172 131.67969 C 174.99908 131.14433 178.74236 129.61431 182.33008 128.2793 C 188.75714 125.88776 188.86246 125.80806 189.36523 122.84961 C 191.24007 111.8172 191.8443 108.72737 192.25391 108.09961 C 192.50884 107.7089 195.7839 105.41871 199.53125 103.00977 C 205.84689 98.949866 206.4425 98.71993 207.69727 99.855469 C 208.54497 100.62263 209.24419 102.79084 209.56836 105.65625 C 209.85307 108.17284 210.59057 111.43861 211.20703 112.91406 C 212.45148 115.89244 212.05523 118.72477 209.08789 128.02148 C 207.51962 132.93484 207.28513 133.22374 202.68945 135.91211 C 197.97674 138.66892 197.90557 138.76022 196.91797 143.41406 C 196.13217 147.11711 196.11374 148.79982 196.83008 151.2793 C 197.3313 153.01424 198.26481 156.79673 198.9043 159.68555 C 200.01859 164.71915 199.99398 165.16179 198.34766 170.27344 L 196.63086 175.60547 L 198.82422 177.70312 L 201.01953 179.79883 L 199.44141 177.48047 L 197.86523 175.16211 L 199.75977 170.5625 C 201.38346 166.62106 201.57999 165.25242 201.14062 160.98633 C 200.85864 158.24848 199.96076 154.31297 199.14453 152.24219 C 197.75017 148.70466 197.73244 148.22812 198.85938 144.35156 C 199.87975 140.84154 200.49995 139.99924 203.01758 138.71484 C 204.64528 137.88446 206.19333 137.42184 206.45703 137.68555 C 206.72074 137.94928 206.9375 139.89765 206.9375 142.01562 C 206.9375 146.78084 209.81994 151.28195 218.53711 160.12891 C 221.78343 163.42355 224.67874 166.87666 224.97266 167.80273 C 225.4961 169.45192 225.00107 170.0617 220.16602 173.69531 C 219.29319 174.35124 219.24448 175.09929 219.92188 177.53906 C 221.43373 182.98453 221.08077 184.27615 217.3125 187.09961 C 215.41017 188.52497 213.85352 189.93026 213.85352 190.2207 C 213.85352 190.51113 214.55608 192.33576 215.41406 194.27539 L 216.97461 197.80078 L 213.53711 204.64648 L 210.09766 211.49219 L 210.83594 216.69531 C 211.24123 219.55714 211.78146 222.73137 212.03711 223.75 C 212.86513 227.0491 213.16459 225.07336 212.36328 221.59766 C 210.95056 215.46994 211.35888 211.88445 214.04688 206.82422 L 216.54492 202.12109 L 216.77344 205.63672 C 216.96466 208.56647 217.50916 209.64491 220.04102 212.11719 C 222.64737 214.66223 223.09072 215.57901 223.16992 218.57812 L 223.26172 222.07227 L 224.03516 218.86523 C 224.78411 215.75782 224.70655 215.53962 221.53906 211.7832 C 218.35803 208.01066 218.28025 207.78879 218.64062 203.46094 C 218.91303 200.18948 218.63489 198.13372 217.58594 195.68359 C 215.5686 190.97141 215.78376 190.11232 219.69727 187.23242 C 222.65903 185.05293 223.11331 184.37029 222.76758 182.62109 C 221.32596 175.3272 221.33038 175.28677 224.00586 173.44336 C 229.87751 169.39776 229.66712 169.96138 226.875 165.82422 C 225.49996 163.78678 222.00621 159.64871 219.11328 156.62891 C 216.22037 153.6091 213.85352 150.76096 213.85352 150.29883 C 213.85352 149.83669 215.09003 148.94323 216.59961 148.3125 C 219.22513 147.21548 219.53718 147.2627 223.81836 149.42383 C 227.63075 151.34831 228.67592 151.57431 230.86914 150.94531 C 235.33327 149.66503 236.52769 149.99546 237.91016 152.89453 C 238.61511 154.37283 240.61823 156.5354 242.36133 157.69922 C 244.10444 158.86305 247.05056 161.15581 248.9082 162.79492 C 251.86839 165.40691 252.28506 166.16614 252.28906 168.94336 C 252.29151 170.68616 252.62757 174.18817 253.03516 176.72461 C 253.66589 180.64964 254.19567 181.69183 256.5957 183.73047 C 258.14662 185.04786 260.49139 186.73267 261.80664 187.47461 C 263.86948 188.63824 263.7782 188.46772 261.14258 186.23242 C 254.17574 180.32382 254.67814 181.30406 254.12891 172.49609 C 253.55939 163.36214 253.501 163.25129 246.52148 158.08984 C 242.54199 155.14695 239.35923 151.26578 239.25 149.21875 C 239.19714 148.22801 245.54305 145.82093 249.72266 145.24609 C 252.96619 144.79998 254.17193 144.14416 256.94141 141.32227 L 260.26562 137.93555 L 263.76953 139.94141 C 265.69663 141.04536 268.49868 143.11578 269.99609 144.54102 C 273.19685 147.58751 274.91842 148.0414 272.21094 145.125 C 270.65624 143.45033 264.53773 138.95546 260.9668 136.86523 C 260.41775 136.54383 258.301 137.8989 255.76953 140.19141 C 252.36983 143.27019 250.95728 144.05859 248.83594 144.05859 C 247.37047 144.05859 243.99601 144.87643 241.33789 145.87695 C 238.67976 146.87747 234.70085 148.08381 232.49609 148.55664 C 228.62215 149.38745 228.34012 149.32917 224.0957 146.83008 L 219.70508 144.24414 L 215.5957 145.65625 L 211.48633 147.07031 L 210.75 145.12891 C 209.23591 141.14655 209.94722 135.38951 213.18945 125.39648 C 216.35752 115.63203 216.36765 115.55553 215.11523 112.36719 C 214.42287 110.60328 214.11516 108.90577 214.43164 108.59375 C 214.74811 108.2817 217.42755 108.35611 220.38672 108.75977 C 223.34589 109.16343 228.36265 109.69058 231.5332 109.93164 C 237.05151 110.35121 237.41384 110.49987 240.03516 113.41016 C 243.36732 117.1097 249.14935 119.01059 253.45312 117.82227 C 256.62422 116.94668 257.05105 116.02998 254.01367 116.61914 C 252.85114 116.84464 250.2189 116.64333 248.16211 116.17188 C 245.15945 115.48363 243.79579 114.58603 241.24414 111.62305 C 239.09789 109.13078 237.44228 107.91289 236.14453 107.87109 C 235.08767 107.83693 229.55269 106.88239 223.8457 105.75 L 213.4707 103.69141 L 213.21094 101.39258 C 213.06795 100.12817 211.76891 97.651327 210.32617 95.888672 C 208.8834 94.125998 207.00936 91.063114 206.16016 89.082031 C 205.09126 86.588361 204.66647 85.831115 203.70117 85.814453 z "
       d="m 203.69531,86.128906 c -0.26744,-0.0046 -0.62918,0.06356 -1.10742,0.183594 -0.56932,0.142885 -1.12565,0.309902 -1.55664,0.462891 -0.2155,0.07649 -0.40057,0.149441 -0.53516,0.210937 -0.0922,0.04215 -0.11097,0.05837 -0.14062,0.07617 0.003,0.03975 0.007,0.08033 0.0215,0.152344 0.04,0.192133 0.12324,0.476079 0.24219,0.8125 0.23791,0.672842 0.61601,1.568573 1.07422,2.511718 0.46411,0.955274 0.88643,1.862602 1.19336,2.558594 0.15346,0.347996 0.2791,0.642624 0.36719,0.867188 0.044,0.112282 0.0778,0.206329 0.10351,0.285156 0.0257,0.07883 0.0508,0.111359 0.0508,0.238281 0,0.116011 -0.0323,0.149436 -0.0508,0.181641 -0.0184,0.03221 -0.0365,0.05497 -0.0547,0.07813 -0.0364,0.04631 -0.0785,0.09054 -0.13085,0.144531 -0.10465,0.107975 -0.24843,0.2455 -0.4336,0.414063 -0.37033,0.337125 -0.90144,0.797895 -1.55469,1.349609 -1.30649,1.103429 -3.10479,2.574744 -5.08398,4.15039 -3.99887,3.18354 -5.99327,4.84028 -6.99805,7.00586 -1.00477,2.16558 -1.06438,4.94618 -1.07812,10.41211 -0.003,1.3018 -0.07,2.5748 -0.17578,3.58594 -0.0529,0.50557 -0.11633,0.94655 -0.1875,1.29687 -0.0712,0.35032 -0.12528,0.59436 -0.26954,0.80078 -0.12944,0.18525 -0.31927,0.32571 -0.57617,0.49805 -0.25689,0.17234 -0.57956,0.35911 -0.95117,0.55469 -0.74322,0.39116 -1.67934,0.81343 -2.64258,1.17773 -2.12798,0.80481 -5.07545,2.27526 -7.41015,3.60352 -1.16736,0.66413 -2.18517,1.29393 -2.86524,1.78125 -0.25875,0.18541 -0.41226,0.32318 -0.55859,0.45508 0.0589,-0.0114 0.0941,-0.0111 0.16211,-0.0293 0.36331,-0.0972 0.83816,-0.28774 1.3125,-0.54492 0.52962,-0.28717 1.70352,-0.79824 3.21484,-1.41602 1.51133,-0.61778 3.34738,-1.33518 5.14453,-2.0039 3.21299,-1.19557 4.83836,-1.82402 5.65625,-2.45508 0.40895,-0.31553 0.62516,-0.61586 0.78907,-1.03321 0.1639,-0.41734 0.26519,-0.96116 0.39062,-1.69921 0.93754,-5.51693 1.55629,-9.04885 1.99414,-11.28516 0.21893,-1.11816 0.39251,-1.9108 0.53906,-2.47266 0.14655,-0.56186 0.25488,-0.88532 0.40235,-1.11133 0.0775,-0.11881 0.16013,-0.18553 0.28906,-0.29687 0.12893,-0.11134 0.29627,-0.24639 0.5,-0.40234 0.40747,-0.31191 0.95926,-0.71096 1.62109,-1.17383 1.32368,-0.92574 3.08224,-2.10215 4.95899,-3.3086 3.15933,-2.03092 4.87912,-3.107405 6.03711,-3.554684 0.57899,-0.223639 1.03983,-0.292048 1.45117,-0.199218 0.41134,0.09283 0.73184,0.335157 1.05859,0.630859 0.50104,0.453433 0.88871,1.226723 1.21875,2.250003 0.33005,1.02327 0.58999,2.29909 0.75391,3.74804 0.28132,2.48659 1.02794,5.76623 1.61523,7.17188 0.64043,1.53275 0.86072,3.06949 0.54102,5.34961 -0.3197,2.28012 -1.16515,5.32132 -2.65039,9.97461 -0.78497,2.45929 -1.24309,3.80054 -2.11914,4.88086 -0.87605,1.08032 -2.11986,1.84006 -4.41992,3.18554 -2.35565,1.37799 -3.51577,2.08091 -4.19141,2.95899 -0.67564,0.87808 -0.93807,2.0101 -1.43164,4.33594 -0.782,3.68515 -0.79919,5.27114 -0.0937,7.71289 0.50614,1.75195 1.43915,5.53048 2.08008,8.42578 1.11534,5.03834 1.0832,5.63614 -0.56446,10.75195 l -1.65625,5.14453 2.05079,1.96289 0.0527,0.0508 -1.48828,-2.18945 a 0.31368293,0.31368293 0 0 1 -0.0293,-0.29492 l 1.89453,-4.59961 c 1.61735,-3.92604 1.79512,-5.17597 1.35742,-9.42578 -0.27816,-2.70082 -1.17931,-6.6425 -1.9746,-8.66016 -1.39756,-3.54562 -1.42404,-4.20973 -0.29493,-8.09375 0.51307,-1.76491 0.93017,-2.88927 1.56641,-3.75195 0.63624,-0.86268 1.47575,-1.4261 2.75,-2.07617 0.8287,-0.42277 1.63447,-0.75126 2.2832,-0.94532 0.32437,-0.097 0.60807,-0.16118 0.84961,-0.18359 0.24154,-0.0224 0.46503,-0.0506 0.67188,0.15625 0.18727,0.18729 0.20792,0.37124 0.26953,0.64258 0.0616,0.27134 0.11377,0.61554 0.1582,1.01562 0.0889,0.80016 0.14453,1.82485 0.14453,2.89453 0,2.31937 0.6918,4.56433 2.48047,7.35743 1.78868,2.79309 4.67529,6.1183 9.02735,10.53515 1.62889,1.65314 3.16859,3.34511 4.34179,4.74414 0.58661,0.69952 1.08263,1.32662 1.45313,1.8418 0.3705,0.51518 0.6154,0.89342 0.71679,1.21289 0.13686,0.4312 0.21997,0.8303 0.16211,1.24414 -0.0579,0.41385 -0.25714,0.81756 -0.61132,1.25195 -0.70837,0.8688 -2.0486,1.92341 -4.46875,3.74219 -0.39288,0.29525 -0.54633,0.52478 -0.57813,1.02344 -0.0318,0.49866 0.11325,1.27627 0.44922,2.48633 0.75932,2.73495 1.07439,4.46944 0.67578,5.92969 -0.39861,1.46024 -1.50165,2.54412 -3.40039,3.96679 -0.94443,0.70764 -1.80289,1.40996 -2.41992,1.9668 -0.30852,0.27842 -0.55732,0.52189 -0.7207,0.70312 -0.0817,0.0906 -0.14118,0.16617 -0.17383,0.21485 -0.0327,0.0487 -0.0176,0.0882 -0.0176,-0.0156 0,-0.0538 0.0309,0.15284 0.10742,0.38672 0.0766,0.23388 0.18988,0.54593 0.33008,0.91016 0.2804,0.72846 0.66862,1.66535 1.0957,2.63086 l 1.56055,3.52539 a 0.31368293,0.31368293 0 0 1 -0.006,0.26758 l -3.4375,6.8457 a 0.31368293,0.31368293 0 0 1 -0.002,0 l -3.39453,6.75781 0.7246,5.10547 c 0.40438,2.8554 0.95172,6.05284 1.19532,7.02344 0.0505,0.20127 0.0722,0.19948 0.11914,0.36133 -0.006,-0.0613 0.002,-0.0701 -0.006,-0.13477 -0.0701,-0.60852 -0.19858,-1.374 -0.39649,-2.23242 -1.42171,-6.16671 -0.99968,-9.88742 1.71094,-14.99024 l 2.49805,-4.70312 a 0.31368293,0.31368293 0 0 1 0.58984,0.12695 l 0.22852,3.51563 c 0.18902,2.89612 0.6585,3.81926 3.17383,6.27539 1.31028,1.27946 2.10215,2.16946 2.57617,3.14844 0.47401,0.97898 0.60845,2.01514 0.64844,3.52929 l 0.0293,1.11914 0.2168,-0.89843 c 0.3735,-1.54969 0.52094,-2.29522 0.23047,-3.11914 -0.29047,-0.82393 -1.07948,-1.80867 -2.66211,-3.68555 -1.59166,-1.88763 -2.43515,-2.90774 -2.83399,-4.05274 -0.39884,-1.14499 -0.31709,-2.33182 -0.13672,-4.49804 0.27005,-3.24304 6.2e-4,-5.21869 -1.03124,-7.62891 -1.01298,-2.36614 -1.50715,-3.81652 -1.1836,-5.11133 0.32355,-1.2948 1.4319,-2.26769 3.39844,-3.71484 1.47445,-1.08502 2.30446,-1.79575 2.69922,-2.38867 0.39475,-0.59293 0.41434,-1.06881 0.24804,-1.91016 -0.72084,-3.64711 -1.09751,-5.47498 -0.92773,-6.73437 0.0849,-0.6297 0.3313,-1.11866 0.7207,-1.53321 0.38941,-0.41454 0.9069,-0.76738 1.57617,-1.22851 1.47,-1.01284 2.55883,-1.737 3.30665,-2.30664 0.74781,-0.56965 1.13534,-0.98692 1.26171,-1.32227 0.12638,-0.33535 0.0608,-0.65723 -0.24218,-1.2168 -0.30298,-0.55956 -0.83817,-1.3013 -1.53907,-2.33984 -1.34738,-1.99647 -4.84733,-6.14676 -7.72851,-9.1543 -1.45097,-1.51462 -2.76858,-2.98539 -3.72852,-4.14062 -0.47997,-0.57762 -0.87122,-1.07601 -1.14648,-1.4668 -0.13763,-0.19539 -0.24658,-0.36302 -0.32617,-0.50781 -0.0796,-0.14479 -0.14649,-0.24001 -0.14649,-0.43164 0,-0.25541 0.13182,-0.43762 0.29492,-0.62305 0.16311,-0.18542 0.38078,-0.37124 0.64258,-0.56055 0.52361,-0.37862 1.22666,-0.76786 2.00196,-1.09179 1.31831,-0.55083 2.13633,-0.84471 3.1582,-0.6875 1.02187,0.1572 2.17976,0.72706 4.32226,1.80859 1.90032,0.95927 3.09977,1.48445 4.0586,1.69141 0.95883,0.20696 1.69127,0.11671 2.76562,-0.19141 2.24607,-0.64415 3.7019,-0.91037 4.84571,-0.59375 1.14381,0.31662 1.8601,1.23195 2.56445,2.70899 0.65674,1.3772 2.65563,3.55193 4.3418,4.67773 1.76558,1.17884 4.70788,3.47109 6.58007,5.12305 1.48593,1.31114 2.35838,2.17017 2.86719,3.0957 0.50882,0.92553 0.61907,1.88285 0.6211,3.28711 0.002,1.70307 0.33748,5.21397 0.74218,7.73242 0.31388,1.95323 0.60017,3.1614 1.08594,4.11719 0.48577,0.95579 1.17859,1.6896 2.36719,2.69922 1.30501,1.10851 3.1,2.38997 4.42383,3.22265 -0.11285,-0.0962 -0.15903,-0.13882 -0.28321,-0.24414 -3.47973,-2.95117 -5.12963,-4.19097 -5.99023,-5.87695 -0.8606,-1.68598 -0.85852,-3.67935 -1.13281,-8.07813 -0.28473,-4.56638 -0.45176,-6.8365 -1.36524,-8.5664 -0.91348,-1.7299 -2.626,-3.02709 -6.11523,-5.60742 -2.01061,-1.48687 -3.81826,-3.20641 -5.14453,-4.82422 -1.32628,-1.61782 -2.19122,-3.1064 -2.25391,-4.28125 -0.0157,-0.29392 0.15795,-0.49164 0.36328,-0.67969 0.20533,-0.18805 0.48191,-0.3745 0.82031,-0.56836 0.6768,-0.38771 1.60459,-0.80245 2.66602,-1.20508 2.12286,-0.80526 4.76546,-1.5551 6.89258,-1.84765 3.21282,-0.44189 4.28249,-1.02529 7.03711,-3.83203 l 3.32422,-3.38672 a 0.31368293,0.31368293 0 0 1 0.38086,-0.0527 l 3.5039,2.00586 c 1.96008,1.12285 4.75804,3.18916 6.28711,4.64453 0.79284,0.75463 1.49297,1.34629 2.04883,1.76172 0.29243,0.21855 0.39562,0.24664 0.59766,0.36328 -0.20202,-0.28983 -0.38886,-0.5737 -0.87891,-1.10156 -0.73296,-0.78952 -2.6567,-2.3442 -4.82031,-3.93359 -2.16362,-1.5894 -4.58329,-3.23253 -6.35157,-4.26758 0.0215,0.0126 -0.13928,-0.0208 -0.41992,0.084 -0.28063,0.10476 -0.66178,0.30657 -1.10742,0.5918 -0.89128,0.57045 -2.0445,1.47363 -3.30078,2.61133 -1.706,1.54495 -2.92116,2.52494 -4.00391,3.1289 -1.08274,0.60397 -2.0411,0.82032 -3.14062,0.82032 -1.34878,0 -4.75777,0.80733 -7.38672,1.79687 -2.67692,1.00759 -6.65066,2.21382 -8.88672,2.69336 -1.93997,0.41605 -3.03246,0.62496 -4.19141,0.38672 -1.15894,-0.23824 -2.30968,-0.89985 -4.43359,-2.15039 l -4.26758,-2.51172 -3.97265,1.36523 -4.10938,1.41407 a 0.31368293,0.31368293 0 0 1 -0.39453,-0.18555 l -0.73633,-1.94141 c -1.56137,-4.10672 -0.81539,-9.92754 2.43359,-19.9414 1.584,-4.88209 2.37526,-7.34474 2.60938,-8.92969 0.23412,-1.58495 -0.05,-2.29361 -0.67578,-3.88672 -0.35291,-0.8991 -0.60945,-1.77921 -0.73828,-2.49023 -0.0644,-0.35551 -0.0973,-0.66785 -0.0918,-0.93164 0.006,-0.2638 0.0183,-0.49379 0.2168,-0.68946 0.12056,-0.11887 0.23717,-0.14852 0.37109,-0.18164 0.13392,-0.0331 0.28764,-0.0541 0.46875,-0.0703 0.36222,-0.0324 0.82953,-0.0387 1.37695,-0.0234 1.09485,0.0305 2.51237,0.15032 4.00196,0.35352 2.94836,0.40218 7.96593,0.92959 11.12695,1.16992 2.76143,0.20996 4.25681,0.3466 5.43359,0.82813 1.17679,0.48152 1.96366,1.29539 3.27735,2.7539 3.24716,3.60517 8.94998,5.46466 13.10156,4.31836 0.78098,-0.21564 1.39032,-0.43329 1.80664,-0.62305 0.099,-0.0451 0.14814,-0.08 0.22461,-0.12109 -0.3063,0.005 -0.69399,0.0297 -1.32617,0.15234 -1.28368,0.249 -3.88778,0.0309 -5.98242,-0.44921 -3.04039,-0.6969 -4.51867,-1.66928 -7.08594,-4.6504 -2.12718,-2.47011 -3.76069,-3.60681 -4.87109,-3.64257 -0.60504,-0.0196 -2.21667,-0.26927 -4.44922,-0.6543 -2.23255,-0.38503 -5.04441,-0.90597 -7.90039,-1.47266 L 213.41016,104 a 0.31368293,0.31368293 0 0 1 -0.25196,-0.27344 l -0.25976,-2.29883 c -0.0622,-0.54954 -0.40686,-1.476384 -0.91992,-2.455074 -0.51307,-0.978689 -1.18955,-2.023455 -1.89454,-2.884765 -1.47125,-1.797468 -3.34397,-4.855744 -4.21289,-6.882813 -0.53305,-1.243573 -0.90731,-2.047438 -1.23437,-2.503906 -0.32706,-0.456468 -0.53994,-0.565336 -0.94141,-0.572266 z"
       transform="matrix(0.68778289,0,0,0.68778289,62.820997,3.4908037)" />
    <path
       id="path41"
       style="fill:#8bffff;stroke-width:1.45395;fill-opacity:1"
       sodipodi:type="inkscape:offset"
       inkscape:radius="-0.31365156"
       inkscape:original="M 203.70117 85.814453 C 203.37941 85.808899 202.99737 85.885918 202.51172 86.007812 C 201.35422 86.298317 200.25459 86.688768 200.06836 86.875 C 199.88207 87.06127 200.48691 88.77143 201.41211 90.675781 C 202.33734 92.580152 203.09375 94.296157 203.09375 94.488281 C 203.09375 94.680445 199.85871 97.412412 195.9043 100.56055 C 187.90373 106.92989 187.73648 107.28958 187.70898 118.22461 C 187.7025 120.80773 187.44339 123.28408 187.13281 123.72852 C 186.82223 124.17298 185.01171 125.12623 183.10938 125.8457 C 178.79671 127.47677 171.3041 131.73963 171.82812 132.26367 C 172.04271 132.47823 173.02434 132.21505 174.01172 131.67969 C 174.99908 131.14433 178.74236 129.61431 182.33008 128.2793 C 188.75714 125.88776 188.86246 125.80806 189.36523 122.84961 C 191.24007 111.8172 191.8443 108.72737 192.25391 108.09961 C 192.50884 107.7089 195.7839 105.41871 199.53125 103.00977 C 205.84689 98.949866 206.4425 98.71993 207.69727 99.855469 C 208.54497 100.62263 209.24419 102.79084 209.56836 105.65625 C 209.85307 108.17284 210.59057 111.43861 211.20703 112.91406 C 212.45148 115.89244 212.05523 118.72477 209.08789 128.02148 C 207.51962 132.93484 207.28513 133.22374 202.68945 135.91211 C 197.97674 138.66892 197.90557 138.76022 196.91797 143.41406 C 196.13217 147.11711 196.11374 148.79982 196.83008 151.2793 C 197.3313 153.01424 198.26481 156.79673 198.9043 159.68555 C 200.01859 164.71915 199.99398 165.16179 198.34766 170.27344 L 196.63086 175.60547 L 198.82422 177.70312 L 201.01953 179.79883 L 199.44141 177.48047 L 197.86523 175.16211 L 199.75977 170.5625 C 201.38346 166.62106 201.57999 165.25242 201.14062 160.98633 C 200.85864 158.24848 199.96076 154.31297 199.14453 152.24219 C 197.75017 148.70466 197.73244 148.22812 198.85938 144.35156 C 199.87975 140.84154 200.49995 139.99924 203.01758 138.71484 C 204.64528 137.88446 206.19333 137.42184 206.45703 137.68555 C 206.72074 137.94928 206.9375 139.89765 206.9375 142.01562 C 206.9375 146.78084 209.81994 151.28195 218.53711 160.12891 C 221.78343 163.42355 224.67874 166.87666 224.97266 167.80273 C 225.4961 169.45192 225.00107 170.0617 220.16602 173.69531 C 219.29319 174.35124 219.24448 175.09929 219.92188 177.53906 C 221.43373 182.98453 221.08077 184.27615 217.3125 187.09961 C 215.41017 188.52497 213.85352 189.93026 213.85352 190.2207 C 213.85352 190.51113 214.55608 192.33576 215.41406 194.27539 L 216.97461 197.80078 L 213.53711 204.64648 L 210.09766 211.49219 L 210.83594 216.69531 C 211.24123 219.55714 211.78146 222.73137 212.03711 223.75 C 212.86513 227.0491 213.16459 225.07336 212.36328 221.59766 C 210.95056 215.46994 211.35888 211.88445 214.04688 206.82422 L 216.54492 202.12109 L 216.77344 205.63672 C 216.96466 208.56647 217.50916 209.64491 220.04102 212.11719 C 222.64737 214.66223 223.09072 215.57901 223.16992 218.57812 L 223.26172 222.07227 L 224.03516 218.86523 C 224.78411 215.75782 224.70655 215.53962 221.53906 211.7832 C 218.35803 208.01066 218.28025 207.78879 218.64062 203.46094 C 218.91303 200.18948 218.63489 198.13372 217.58594 195.68359 C 215.5686 190.97141 215.78376 190.11232 219.69727 187.23242 C 222.65903 185.05293 223.11331 184.37029 222.76758 182.62109 C 221.32596 175.3272 221.33038 175.28677 224.00586 173.44336 C 229.87751 169.39776 229.66712 169.96138 226.875 165.82422 C 225.49996 163.78678 222.00621 159.64871 219.11328 156.62891 C 216.22037 153.6091 213.85352 150.76096 213.85352 150.29883 C 213.85352 149.83669 215.09003 148.94323 216.59961 148.3125 C 219.22513 147.21548 219.53718 147.2627 223.81836 149.42383 C 227.63075 151.34831 228.67592 151.57431 230.86914 150.94531 C 235.33327 149.66503 236.52769 149.99546 237.91016 152.89453 C 238.61511 154.37283 240.61823 156.5354 242.36133 157.69922 C 244.10444 158.86305 247.05056 161.15581 248.9082 162.79492 C 251.86839 165.40691 252.28506 166.16614 252.28906 168.94336 C 252.29151 170.68616 252.62757 174.18817 253.03516 176.72461 C 253.66589 180.64964 254.19567 181.69183 256.5957 183.73047 C 258.14662 185.04786 260.49139 186.73267 261.80664 187.47461 C 263.86948 188.63824 263.7782 188.46772 261.14258 186.23242 C 254.17574 180.32382 254.67814 181.30406 254.12891 172.49609 C 253.55939 163.36214 253.501 163.25129 246.52148 158.08984 C 242.54199 155.14695 239.35923 151.26578 239.25 149.21875 C 239.19714 148.22801 245.54305 145.82093 249.72266 145.24609 C 252.96619 144.79998 254.17193 144.14416 256.94141 141.32227 L 260.26562 137.93555 L 263.76953 139.94141 C 265.69663 141.04536 268.49868 143.11578 269.99609 144.54102 C 273.19685 147.58751 274.91842 148.0414 272.21094 145.125 C 270.65624 143.45033 264.53773 138.95546 260.9668 136.86523 C 260.41775 136.54383 258.301 137.8989 255.76953 140.19141 C 252.36983 143.27019 250.95728 144.05859 248.83594 144.05859 C 247.37047 144.05859 243.99601 144.87643 241.33789 145.87695 C 238.67976 146.87747 234.70085 148.08381 232.49609 148.55664 C 228.62215 149.38745 228.34012 149.32917 224.0957 146.83008 L 219.70508 144.24414 L 215.5957 145.65625 L 211.48633 147.07031 L 210.75 145.12891 C 209.23591 141.14655 209.94722 135.38951 213.18945 125.39648 C 216.35752 115.63203 216.36765 115.55553 215.11523 112.36719 C 214.42287 110.60328 214.11516 108.90577 214.43164 108.59375 C 214.74811 108.2817 217.42755 108.35611 220.38672 108.75977 C 223.34589 109.16343 228.36265 109.69058 231.5332 109.93164 C 237.05151 110.35121 237.41384 110.49987 240.03516 113.41016 C 243.36732 117.1097 249.14935 119.01059 253.45312 117.82227 C 256.62422 116.94668 257.05105 116.02998 254.01367 116.61914 C 252.85114 116.84464 250.2189 116.64333 248.16211 116.17188 C 245.15945 115.48363 243.79579 114.58603 241.24414 111.62305 C 239.09789 109.13078 237.44228 107.91289 236.14453 107.87109 C 235.08767 107.83693 229.55269 106.88239 223.8457 105.75 L 213.4707 103.69141 L 213.21094 101.39258 C 213.06795 100.12817 211.76891 97.651327 210.32617 95.888672 C 208.8834 94.125998 207.00936 91.063114 206.16016 89.082031 C 205.09126 86.588361 204.66647 85.831115 203.70117 85.814453 z "
       d="m 203.69531,86.128906 c -0.26744,-0.0046 -0.62918,0.06356 -1.10742,0.183594 -0.56932,0.142885 -1.12565,0.309902 -1.55664,0.462891 -0.2155,0.07649 -0.40057,0.149441 -0.53516,0.210937 -0.0922,0.04215 -0.11097,0.05837 -0.14062,0.07617 0.003,0.03975 0.007,0.08033 0.0215,0.152344 0.04,0.192133 0.12324,0.476079 0.24219,0.8125 0.23791,0.672842 0.61601,1.568573 1.07422,2.511718 0.46411,0.955274 0.88643,1.862602 1.19336,2.558594 0.15346,0.347996 0.2791,0.642624 0.36719,0.867188 0.044,0.112282 0.0778,0.206329 0.10351,0.285156 0.0257,0.07883 0.0508,0.111359 0.0508,0.238281 0,0.116011 -0.0323,0.149436 -0.0508,0.181641 -0.0184,0.03221 -0.0365,0.05497 -0.0547,0.07813 -0.0364,0.04631 -0.0785,0.09054 -0.13085,0.144531 -0.10465,0.107975 -0.24843,0.2455 -0.4336,0.414063 -0.37033,0.337125 -0.90144,0.797895 -1.55469,1.349609 -1.30649,1.103429 -3.10479,2.574744 -5.08398,4.15039 -3.99887,3.18354 -5.99327,4.84028 -6.99805,7.00586 -1.00477,2.16558 -1.06438,4.94618 -1.07812,10.41211 -0.003,1.3018 -0.07,2.5748 -0.17578,3.58594 -0.0529,0.50557 -0.11633,0.94655 -0.1875,1.29687 -0.0712,0.35032 -0.12528,0.59436 -0.26954,0.80078 -0.12944,0.18525 -0.31927,0.32571 -0.57617,0.49805 -0.25689,0.17234 -0.57956,0.35911 -0.95117,0.55469 -0.74322,0.39116 -1.67934,0.81343 -2.64258,1.17773 -2.12798,0.80481 -5.07545,2.27526 -7.41015,3.60352 -1.16736,0.66413 -2.18517,1.29393 -2.86524,1.78125 -0.25875,0.18541 -0.41226,0.32318 -0.55859,0.45508 0.0589,-0.0114 0.0941,-0.0111 0.16211,-0.0293 0.36331,-0.0972 0.83816,-0.28774 1.3125,-0.54492 0.52962,-0.28717 1.70352,-0.79824 3.21484,-1.41602 1.51133,-0.61778 3.34738,-1.33518 5.14453,-2.0039 3.21299,-1.19557 4.83836,-1.82402 5.65625,-2.45508 0.40895,-0.31553 0.62516,-0.61586 0.78907,-1.03321 0.1639,-0.41734 0.26519,-0.96116 0.39062,-1.69921 0.93754,-5.51693 1.55629,-9.04885 1.99414,-11.28516 0.21893,-1.11816 0.39251,-1.9108 0.53906,-2.47266 0.14655,-0.56186 0.25488,-0.88532 0.40235,-1.11133 0.0775,-0.11881 0.16013,-0.18553 0.28906,-0.29687 0.12893,-0.11134 0.29627,-0.24639 0.5,-0.40234 0.40747,-0.31191 0.95926,-0.71096 1.62109,-1.17383 1.32368,-0.92574 3.08224,-2.10215 4.95899,-3.3086 3.15933,-2.03092 4.87912,-3.107405 6.03711,-3.554684 0.57899,-0.223639 1.03983,-0.292048 1.45117,-0.199218 0.41134,0.09283 0.73184,0.335157 1.05859,0.630859 0.50104,0.453433 0.88871,1.226723 1.21875,2.250003 0.33005,1.02327 0.58999,2.29909 0.75391,3.74804 0.28132,2.48659 1.02794,5.76623 1.61523,7.17188 0.64043,1.53275 0.86072,3.06949 0.54102,5.34961 -0.3197,2.28012 -1.16515,5.32132 -2.65039,9.97461 -0.78497,2.45929 -1.24309,3.80054 -2.11914,4.88086 -0.87605,1.08032 -2.11986,1.84006 -4.41992,3.18554 -2.35565,1.37799 -3.51577,2.08091 -4.19141,2.95899 -0.67564,0.87808 -0.93807,2.0101 -1.43164,4.33594 -0.782,3.68515 -0.79919,5.27114 -0.0937,7.71289 0.50614,1.75195 1.43915,5.53048 2.08008,8.42578 1.11534,5.03834 1.0832,5.63614 -0.56446,10.75195 l -1.65625,5.14453 2.05079,1.96289 0.0527,0.0508 -1.48828,-2.18945 a 0.31368293,0.31368293 0 0 1 -0.0293,-0.29492 l 1.89453,-4.59961 c 1.61735,-3.92604 1.79512,-5.17597 1.35742,-9.42578 -0.27816,-2.70082 -1.17931,-6.6425 -1.9746,-8.66016 -1.39756,-3.54562 -1.42404,-4.20973 -0.29493,-8.09375 0.51307,-1.76491 0.93017,-2.88927 1.56641,-3.75195 0.63624,-0.86268 1.47575,-1.4261 2.75,-2.07617 0.8287,-0.42277 1.63447,-0.75126 2.2832,-0.94532 0.32437,-0.097 0.60807,-0.16118 0.84961,-0.18359 0.24154,-0.0224 0.46503,-0.0506 0.67188,0.15625 0.18727,0.18729 0.20792,0.37124 0.26953,0.64258 0.0616,0.27134 0.11377,0.61554 0.1582,1.01562 0.0889,0.80016 0.14453,1.82485 0.14453,2.89453 0,2.31937 0.6918,4.56433 2.48047,7.35743 1.78868,2.79309 4.67529,6.1183 9.02735,10.53515 1.62889,1.65314 3.16859,3.34511 4.34179,4.74414 0.58661,0.69952 1.08263,1.32662 1.45313,1.8418 0.3705,0.51518 0.6154,0.89342 0.71679,1.21289 0.13686,0.4312 0.21997,0.8303 0.16211,1.24414 -0.0579,0.41385 -0.25714,0.81756 -0.61132,1.25195 -0.70837,0.8688 -2.0486,1.92341 -4.46875,3.74219 -0.39288,0.29525 -0.54633,0.52478 -0.57813,1.02344 -0.0318,0.49866 0.11325,1.27627 0.44922,2.48633 0.75932,2.73495 1.07439,4.46944 0.67578,5.92969 -0.39861,1.46024 -1.50165,2.54412 -3.40039,3.96679 -0.94443,0.70764 -1.80289,1.40996 -2.41992,1.9668 -0.30852,0.27842 -0.55732,0.52189 -0.7207,0.70312 -0.0817,0.0906 -0.14118,0.16617 -0.17383,0.21485 -0.0327,0.0487 -0.0176,0.0882 -0.0176,-0.0156 0,-0.0538 0.0309,0.15284 0.10742,0.38672 0.0766,0.23388 0.18988,0.54593 0.33008,0.91016 0.2804,0.72846 0.66862,1.66535 1.0957,2.63086 l 1.56055,3.52539 a 0.31368293,0.31368293 0 0 1 -0.006,0.26758 l -3.4375,6.8457 a 0.31368293,0.31368293 0 0 1 -0.002,0 l -3.39453,6.75781 0.7246,5.10547 c 0.40438,2.8554 0.95172,6.05284 1.19532,7.02344 0.0505,0.20127 0.0722,0.19948 0.11914,0.36133 -0.006,-0.0613 0.002,-0.0701 -0.006,-0.13477 -0.0701,-0.60852 -0.19858,-1.374 -0.39649,-2.23242 -1.42171,-6.16671 -0.99968,-9.88742 1.71094,-14.99024 l 2.49805,-4.70312 a 0.31368293,0.31368293 0 0 1 0.58984,0.12695 l 0.22852,3.51563 c 0.18902,2.89612 0.6585,3.81926 3.17383,6.27539 1.31028,1.27946 2.10215,2.16946 2.57617,3.14844 0.47401,0.97898 0.60845,2.01514 0.64844,3.52929 l 0.0293,1.11914 0.2168,-0.89843 c 0.3735,-1.54969 0.52094,-2.29522 0.23047,-3.11914 -0.29047,-0.82393 -1.07948,-1.80867 -2.66211,-3.68555 -1.59166,-1.88763 -2.43515,-2.90774 -2.83399,-4.05274 -0.39884,-1.14499 -0.31709,-2.33182 -0.13672,-4.49804 0.27005,-3.24304 6.2e-4,-5.21869 -1.03124,-7.62891 -1.01298,-2.36614 -1.50715,-3.81652 -1.1836,-5.11133 0.32355,-1.2948 1.4319,-2.26769 3.39844,-3.71484 1.47445,-1.08502 2.30446,-1.79575 2.69922,-2.38867 0.39475,-0.59293 0.41434,-1.06881 0.24804,-1.91016 -0.72084,-3.64711 -1.09751,-5.47498 -0.92773,-6.73437 0.0849,-0.6297 0.3313,-1.11866 0.7207,-1.53321 0.38941,-0.41454 0.9069,-0.76738 1.57617,-1.22851 1.47,-1.01284 2.55883,-1.737 3.30665,-2.30664 0.74781,-0.56965 1.13534,-0.98692 1.26171,-1.32227 0.12638,-0.33535 0.0608,-0.65723 -0.24218,-1.2168 -0.30298,-0.55956 -0.83817,-1.3013 -1.53907,-2.33984 -1.34738,-1.99647 -4.84733,-6.14676 -7.72851,-9.1543 -1.45097,-1.51462 -2.76858,-2.98539 -3.72852,-4.14062 -0.47997,-0.57762 -0.87122,-1.07601 -1.14648,-1.4668 -0.13763,-0.19539 -0.24658,-0.36302 -0.32617,-0.50781 -0.0796,-0.14479 -0.14649,-0.24001 -0.14649,-0.43164 0,-0.25541 0.13182,-0.43762 0.29492,-0.62305 0.16311,-0.18542 0.38078,-0.37124 0.64258,-0.56055 0.52361,-0.37862 1.22666,-0.76786 2.00196,-1.09179 1.31831,-0.55083 2.13633,-0.84471 3.1582,-0.6875 1.02187,0.1572 2.17976,0.72706 4.32226,1.80859 1.90032,0.95927 3.09977,1.48445 4.0586,1.69141 0.95883,0.20696 1.69127,0.11671 2.76562,-0.19141 2.24607,-0.64415 3.7019,-0.91037 4.84571,-0.59375 1.14381,0.31662 1.8601,1.23195 2.56445,2.70899 0.65674,1.3772 2.65563,3.55193 4.3418,4.67773 1.76558,1.17884 4.70788,3.47109 6.58007,5.12305 1.48593,1.31114 2.35838,2.17017 2.86719,3.0957 0.50882,0.92553 0.61907,1.88285 0.6211,3.28711 0.002,1.70307 0.33748,5.21397 0.74218,7.73242 0.31388,1.95323 0.60017,3.1614 1.08594,4.11719 0.48577,0.95579 1.17859,1.6896 2.36719,2.69922 1.30501,1.10851 3.1,2.38997 4.42383,3.22265 -0.11285,-0.0962 -0.15903,-0.13882 -0.28321,-0.24414 -3.47973,-2.95117 -5.12963,-4.19097 -5.99023,-5.87695 -0.8606,-1.68598 -0.85852,-3.67935 -1.13281,-8.07813 -0.28473,-4.56638 -0.45176,-6.8365 -1.36524,-8.5664 -0.91348,-1.7299 -2.626,-3.02709 -6.11523,-5.60742 -2.01061,-1.48687 -3.81826,-3.20641 -5.14453,-4.82422 -1.32628,-1.61782 -2.19122,-3.1064 -2.25391,-4.28125 -0.0157,-0.29392 0.15795,-0.49164 0.36328,-0.67969 0.20533,-0.18805 0.48191,-0.3745 0.82031,-0.56836 0.6768,-0.38771 1.60459,-0.80245 2.66602,-1.20508 2.12286,-0.80526 4.76546,-1.5551 6.89258,-1.84765 3.21282,-0.44189 4.28249,-1.02529 7.03711,-3.83203 l 3.32422,-3.38672 a 0.31368293,0.31368293 0 0 1 0.38086,-0.0527 l 3.5039,2.00586 c 1.96008,1.12285 4.75804,3.18916 6.28711,4.64453 0.79284,0.75463 1.49297,1.34629 2.04883,1.76172 0.29243,0.21855 0.39562,0.24664 0.59766,0.36328 -0.20202,-0.28983 -0.38886,-0.5737 -0.87891,-1.10156 -0.73296,-0.78952 -2.6567,-2.3442 -4.82031,-3.93359 -2.16362,-1.5894 -4.58329,-3.23253 -6.35157,-4.26758 0.0215,0.0126 -0.13928,-0.0208 -0.41992,0.084 -0.28063,0.10476 -0.66178,0.30657 -1.10742,0.5918 -0.89128,0.57045 -2.0445,1.47363 -3.30078,2.61133 -1.706,1.54495 -2.92116,2.52494 -4.00391,3.1289 -1.08274,0.60397 -2.0411,0.82032 -3.14062,0.82032 -1.34878,0 -4.75777,0.80733 -7.38672,1.79687 -2.67692,1.00759 -6.65066,2.21382 -8.88672,2.69336 -1.93997,0.41605 -3.03246,0.62496 -4.19141,0.38672 -1.15894,-0.23824 -2.30968,-0.89985 -4.43359,-2.15039 l -4.26758,-2.51172 -3.97265,1.36523 -4.10938,1.41407 a 0.31368293,0.31368293 0 0 1 -0.39453,-0.18555 l -0.73633,-1.94141 c -1.56137,-4.10672 -0.81539,-9.92754 2.43359,-19.9414 1.584,-4.88209 2.37526,-7.34474 2.60938,-8.92969 0.23412,-1.58495 -0.05,-2.29361 -0.67578,-3.88672 -0.35291,-0.8991 -0.60945,-1.77921 -0.73828,-2.49023 -0.0644,-0.35551 -0.0973,-0.66785 -0.0918,-0.93164 0.006,-0.2638 0.0183,-0.49379 0.2168,-0.68946 0.12056,-0.11887 0.23717,-0.14852 0.37109,-0.18164 0.13392,-0.0331 0.28764,-0.0541 0.46875,-0.0703 0.36222,-0.0324 0.82953,-0.0387 1.37695,-0.0234 1.09485,0.0305 2.51237,0.15032 4.00196,0.35352 2.94836,0.40218 7.96593,0.92959 11.12695,1.16992 2.76143,0.20996 4.25681,0.3466 5.43359,0.82813 1.17679,0.48152 1.96366,1.29539 3.27735,2.7539 3.24716,3.60517 8.94998,5.46466 13.10156,4.31836 0.78098,-0.21564 1.39032,-0.43329 1.80664,-0.62305 0.099,-0.0451 0.14814,-0.08 0.22461,-0.12109 -0.3063,0.005 -0.69399,0.0297 -1.32617,0.15234 -1.28368,0.249 -3.88778,0.0309 -5.98242,-0.44921 -3.04039,-0.6969 -4.51867,-1.66928 -7.08594,-4.6504 -2.12718,-2.47011 -3.76069,-3.60681 -4.87109,-3.64257 -0.60504,-0.0196 -2.21667,-0.26927 -4.44922,-0.6543 -2.23255,-0.38503 -5.04441,-0.90597 -7.90039,-1.47266 L 213.41016,104 a 0.31368293,0.31368293 0 0 1 -0.25196,-0.27344 l -0.25976,-2.29883 c -0.0622,-0.54954 -0.40686,-1.476384 -0.91992,-2.455074 -0.51307,-0.978689 -1.18955,-2.023455 -1.89454,-2.884765 -1.47125,-1.797468 -3.34397,-4.855744 -4.21289,-6.882813 -0.53305,-1.243573 -0.90731,-2.047438 -1.23437,-2.503906 -0.32706,-0.456468 -0.53994,-0.565336 -0.94141,-0.572266 z"
       transform="matrix(0.68778289,0,0,0.68778289,62.820997,3.4908037)" />
    <path
       style="fill:#aaffaa;stroke-width:1;filter:url(#filter1861)"
       d="m 399.3538,242.39394 c 0.73302,0.0653 2.39724,-0.51486 3.69824,-1.28916 l 2.36545,-1.40783 -0.24725,-3.664 -0.24723,-3.664 2.892,-1.70569 c 1.59064,-0.93811 2.87594,-1.81446 2.85624,-1.94745 -0.0198,-0.13299 -1.01816,-1.71025 -2.2188,-3.50499 -1.20067,-1.79476 -2.18584,-3.50135 -2.18925,-3.79236 -0.004,-0.29107 1.26133,-1.21423 2.81055,-2.05158 1.54923,-0.83733 2.93037,-1.63867 3.06916,-1.78077 0.13878,-0.14212 0.39385,-1.46294 0.56681,-2.93517 0.22932,-1.95167 0.84412,-3.49611 2.26953,-5.70145 2.22176,-3.43738 1.98066,-3.34624 6.5926,-2.49124 2.82988,0.52463 3.03362,0.48125 3.97275,-0.84624 3.56238,-5.03582 2.93017,-4.65176 7.24749,-4.40232 2.15139,0.12426 4.01097,0.12429 4.13236,-1e-5 0.27752,-0.28417 -0.83775,-6.3579 -1.57267,-8.56486 -0.89845,-2.69797 -1.31462,-2.80316 -3.66851,-0.92701 -1.63112,1.30005 -2.5064,1.66436 -3.76123,1.56564 -5.65261,-0.44472 -5.72452,-0.42467 -7.62887,2.12993 -0.96234,1.29093 -2.18939,3.1964 -2.72677,4.2344 -0.95654,1.84764 -1.01422,1.88255 -2.74855,1.66326 -0.97429,-0.12311 -5.05728,-0.11594 -9.07324,0.0162 -6.24207,0.20525 -7.77901,0.45676 -10.58994,1.73295 -3.05931,1.38886 -10.68955,3.66831 -11.06199,3.30459 -0.0907,-0.0886 1.4413,-0.64574 3.40459,-1.23796 1.9633,-0.59224 5.20361,-1.8646 7.20069,-2.82746 3.38298,-1.63107 4.23976,-1.77576 12.53974,-2.11798 l 8.9087,-0.36729 0.93315,-2.42524 c 0.59915,-1.55707 1.64366,-3.15271 2.91797,-4.45753 1.98156,-2.02897 1.99094,-2.0315 5.42739,-1.82072 3.28143,0.20169 3.55026,0.12425 5.74216,-1.65436 l 2.29953,-1.86596 -0.18337,-3.69266 c -0.17578,-3.54035 -0.10098,-3.80878 1.8153,-6.50902 l 1.99863,-2.81639 5.88297,-1.65415 c 4.86278,-1.36726 6.23201,-1.96275 7.89565,-3.43377 1.51306,-1.33789 1.98758,-2.02101 1.91059,-2.75289 -0.15661,-1.49317 -1.66071,-1.96354 -6.00658,-1.87839 -3.22508,0.0632 -4.92614,0.47696 -9.24818,2.24975 l -5.29622,2.17233 -0.87935,2.35686 c -1.31018,3.51173 -1.8912,3.27417 -0.8817,-0.36048 0.87274,-3.14222 0.8986,-3.17949 2.73138,-3.93808 1.01768,-0.42122 2.58711,-1.12023 3.48761,-1.55339 l 1.63734,-0.78751 -3.58009,-3.3447 -3.58008,-3.3447 3.03451,2.08414 c 4.01029,2.75435 6.17195,3.5068 7.96503,2.7726 0.79818,-0.32682 3.38513,-0.70161 5.74875,-0.83286 l 4.29757,-0.23858 1.2281,-2.33106 c 1.75848,-3.33762 28.87404,-14.58635 30.25324,-13.58529 1.2439,0.90285 -25.45703,11.92286 -27.09767,14.44932 -0.49366,0.76017 -0.80072,2.63005 -0.76173,4.63862 0.065,3.35395 0.058,3.37249 -2.14648,5.62972 -1.69879,1.73945 -2.76911,2.44201 -4.61476,3.02925 l -2.40301,0.76456 0.0624,1.87734 c 0.0344,1.03253 0.70194,3.05888 1.48357,4.50298 2.31658,4.28005 3.23264,6.97708 3.07792,9.06198 -0.0801,1.07995 -0.0498,2.05717 0.0673,2.17159 0.11717,0.11433 0.95438,-0.1068 1.86057,-0.49141 1.49969,-0.63659 6.70884,-0.60344 7.37484,0.047 0.1523,0.14875 0.33816,1.81244 0.413,3.69709 0.099,2.4934 0.51709,4.10095 1.53505,5.9025 1.62368,2.87362 3.13377,8.13715 3.04627,10.61812 -0.059,1.67041 -0.0764,1.64554 -0.59428,-0.84747 -0.71845,-3.45805 -2.10456,-7.39521 -3.17152,-9.00842 l -0.87512,-1.32317 -2.78094,3.24624 -2.7809,3.24629 -0.006,3.88129 c -0.007,4.9972 -0.51169,4.55274 -0.6949,-0.61247 -0.12984,-3.6616 -0.0289,-4.07206 1.34809,-5.48202 3.00769,-3.07969 3.91919,-5.25067 3.71692,-8.85296 l -0.18776,-3.34399 -1.72342,-0.26894 c -1.02161,-0.15942 -3.04773,0.24995 -4.9756,1.00532 -1.78869,0.70083 -3.34861,1.27923 -3.4665,1.2853 -0.11792,0.006 -0.17317,-1.38311 -0.12286,-3.0871 0.098,-3.31832 -0.79379,-6.02756 -3.2517,-9.87884 -0.8462,-1.32594 -1.62415,-3.28387 -1.72876,-4.35096 -0.10457,-1.06708 -0.39506,-1.98596 -0.64546,-2.04196 -0.2504,-0.056 -1.52871,0.19194 -2.84063,0.551 -2.19186,0.59986 -2.50266,0.82949 -3.83193,2.83139 -1.85084,2.7875 -1.92526,6.05221 -0.24989,10.96659 1.27722,3.74648 2.95473,12.46779 2.49792,12.98668 -0.14513,0.1645 -1.88282,0.24576 -3.86194,0.18021 l -3.59839,-0.11915 -0.22255,3.26671 c -0.12237,1.79668 -0.61328,4.83181 -1.09079,6.74478 l -0.86819,3.47811 -2.31904,1.2425 c -3.99023,2.13788 -4.55831,3.03975 -3.82515,6.07249 0.38369,1.58715 0.39576,3.94924 0.0303,5.93832 -0.33372,1.81659 -0.49479,4.47335 -0.35795,5.90391 0.13687,1.4306 0.20165,3.67952 0.144,4.99764 l -0.10494,2.39653 -1.98562,0.63975 c -1.09207,0.35188 -1.87088,0.50852 -1.73069,0.34815 0.14067,-0.15995 0.92183,-0.5126 1.73696,-0.78269 l 1.48198,-0.4911 -0.23368,-5.07698 c -0.12855,-2.7924 -0.0451,-6.5323 0.18536,-8.31101 0.23046,-1.77869 0.13542,-4.42309 -0.21119,-5.87647 -0.60222,-2.52489 -0.5614,-2.713 0.91706,-4.22685 0.85102,-0.87139 2.38512,-2.09867 3.4091,-2.72722 1.84051,-1.12982 1.8701,-1.19167 2.58862,-5.41021 0.39976,-2.34702 0.68535,-5.20511 0.63464,-6.35134 l -0.0922,-2.08404 -1.2919,1.78028 c -0.71051,0.97919 -1.66635,2.32718 -2.12407,2.99554 -0.77011,1.12467 -1.11249,1.16405 -4.59103,0.52931 -4.02481,-0.73444 -4.06847,-0.71646 -6.42147,2.64978 -0.86891,1.243 -1.37689,2.78639 -1.54289,4.68776 l -0.24752,2.83464 -2.55709,1.54556 c -1.40638,0.8501 -2.69974,1.69169 -2.87412,1.87024 -0.17437,0.17855 0.56965,1.76063 1.65339,3.51573 1.08373,1.7551 2.03675,3.45785 2.11776,3.78383 0.10012,0.40266 -0.86388,1.12647 -3.00638,2.25727 l -3.15373,1.66456 0.1705,2.21877 c 0.0937,1.2203 0.23547,2.8374 0.31492,3.59351 l 0.14444,1.37476 -2.89791,1.56379 c -2.67139,1.44161 -4.41252,1.77458 -5.20948,0.99625 -0.175,-0.17091 0.28167,-0.25726 1.01463,-0.1921 z"
       id="path1727"
       sodipodi:nodetypes="cscccscscssssscsssssssscssssscsscscsscsscsscsssscccssscssscssccsscsssssssccccssscsssssssssscscsscssssccscscssssssscssssscsssssccscsscc" />
    <path
       style="fill:#daffda;stroke-width:1;fill-opacity:1"
       d="m 399.3538,242.39394 c 0.73302,0.0653 2.39724,-0.51486 3.69824,-1.28916 l 2.36545,-1.40783 -0.24725,-3.664 -0.24723,-3.664 2.892,-1.70569 c 1.59064,-0.93811 2.87594,-1.81446 2.85624,-1.94745 -0.0198,-0.13299 -1.01816,-1.71025 -2.2188,-3.50499 -1.20067,-1.79476 -2.18584,-3.50135 -2.18925,-3.79236 -0.004,-0.29107 1.26133,-1.21423 2.81055,-2.05158 1.54923,-0.83733 2.93037,-1.63867 3.06916,-1.78077 0.13878,-0.14212 0.39385,-1.46294 0.56681,-2.93517 0.22932,-1.95167 0.84412,-3.49611 2.26953,-5.70145 2.22176,-3.43738 1.98066,-3.34624 6.5926,-2.49124 2.82988,0.52463 3.03362,0.48125 3.97275,-0.84624 3.56238,-5.03582 2.93017,-4.65176 7.24749,-4.40232 2.15139,0.12426 4.01097,0.12429 4.13236,-1e-5 0.27752,-0.28417 -0.83775,-6.3579 -1.57267,-8.56486 -0.89845,-2.69797 -1.31462,-2.80316 -3.66851,-0.92701 -1.63112,1.30005 -2.5064,1.66436 -3.76123,1.56564 -5.65261,-0.44472 -5.72452,-0.42467 -7.62887,2.12993 -0.96234,1.29093 -2.18939,3.1964 -2.72677,4.2344 -0.95654,1.84764 -1.01422,1.88255 -2.74855,1.66326 -0.97429,-0.12311 -5.05728,-0.11594 -9.07324,0.0162 -6.24207,0.20525 -7.77901,0.45676 -10.58994,1.73295 -3.05931,1.38886 -10.68955,3.66831 -11.06199,3.30459 -0.0907,-0.0886 1.4413,-0.64574 3.40459,-1.23796 1.9633,-0.59224 5.20361,-1.8646 7.20069,-2.82746 3.38298,-1.63107 4.23976,-1.77576 12.53974,-2.11798 l 8.9087,-0.36729 0.93315,-2.42524 c 0.59915,-1.55707 1.64366,-3.15271 2.91797,-4.45753 1.98156,-2.02897 1.99094,-2.0315 5.42739,-1.82072 3.28143,0.20169 3.55026,0.12425 5.74216,-1.65436 l 2.29953,-1.86596 -0.18337,-3.69266 c -0.17578,-3.54035 -0.10098,-3.80878 1.8153,-6.50902 l 1.99863,-2.81639 5.88297,-1.65415 c 4.86278,-1.36726 6.23201,-1.96275 7.89565,-3.43377 1.51306,-1.33789 1.98758,-2.02101 1.91059,-2.75289 -0.15661,-1.49317 -1.66071,-1.96354 -6.00658,-1.87839 -3.22508,0.0632 -4.92614,0.47696 -9.24818,2.24975 l -5.29622,2.17233 -0.87935,2.35686 c -1.31018,3.51173 -1.8912,3.27417 -0.8817,-0.36048 0.87274,-3.14222 0.8986,-3.17949 2.73138,-3.93808 1.01768,-0.42122 2.58711,-1.12023 3.48761,-1.55339 l 1.63734,-0.78751 -3.58009,-3.3447 -3.58008,-3.3447 3.03451,2.08414 c 4.01029,2.75435 6.17195,3.5068 7.96503,2.7726 0.79818,-0.32682 3.38513,-0.70161 5.74875,-0.83286 l 4.29757,-0.23858 1.2281,-2.33106 c 1.75848,-3.33762 28.87404,-14.58635 30.25324,-13.58529 1.2439,0.90285 -25.45703,11.92286 -27.09767,14.44932 -0.49366,0.76017 -0.80072,2.63005 -0.76173,4.63862 0.065,3.35395 0.058,3.37249 -2.14648,5.62972 -1.69879,1.73945 -2.76911,2.44201 -4.61476,3.02925 l -2.40301,0.76456 0.0624,1.87734 c 0.0344,1.03253 0.70194,3.05888 1.48357,4.50298 2.31658,4.28005 3.23264,6.97708 3.07792,9.06198 -0.0801,1.07995 -0.0498,2.05717 0.0673,2.17159 0.11717,0.11433 0.95438,-0.1068 1.86057,-0.49141 1.49969,-0.63659 6.70884,-0.60344 7.37484,0.047 0.1523,0.14875 0.33816,1.81244 0.413,3.69709 0.099,2.4934 0.51709,4.10095 1.53505,5.9025 1.62368,2.87362 3.13377,8.13715 3.04627,10.61812 -0.059,1.67041 -0.0764,1.64554 -0.59428,-0.84747 -0.71845,-3.45805 -2.10456,-7.39521 -3.17152,-9.00842 l -0.87512,-1.32317 -2.78094,3.24624 -2.7809,3.24629 -0.006,3.88129 c -0.007,4.9972 -0.51169,4.55274 -0.6949,-0.61247 -0.12984,-3.6616 -0.0289,-4.07206 1.34809,-5.48202 3.00769,-3.07969 3.91919,-5.25067 3.71692,-8.85296 l -0.18776,-3.34399 -1.72342,-0.26894 c -1.02161,-0.15942 -3.04773,0.24995 -4.9756,1.00532 -1.78869,0.70083 -3.34861,1.27923 -3.4665,1.2853 -0.11792,0.006 -0.17317,-1.38311 -0.12286,-3.0871 0.098,-3.31832 -0.79379,-6.02756 -3.2517,-9.87884 -0.8462,-1.32594 -1.62415,-3.28387 -1.72876,-4.35096 -0.10457,-1.06708 -0.39506,-1.98596 -0.64546,-2.04196 -0.2504,-0.056 -1.52871,0.19194 -2.84063,0.551 -2.19186,0.59986 -2.50266,0.82949 -3.83193,2.83139 -1.85084,2.7875 -1.92526,6.05221 -0.24989,10.96659 1.27722,3.74648 2.95473,12.46779 2.49792,12.98668 -0.14513,0.1645 -1.88282,0.24576 -3.86194,0.18021 l -3.59839,-0.11915 -0.22255,3.26671 c -0.12237,1.79668 -0.61328,4.83181 -1.09079,6.74478 l -0.86819,3.47811 -2.31904,1.2425 c -3.99023,2.13788 -4.55831,3.03975 -3.82515,6.07249 0.38369,1.58715 0.39576,3.94924 0.0303,5.93832 -0.33372,1.81659 -0.49479,4.47335 -0.35795,5.90391 0.13687,1.4306 0.20165,3.67952 0.144,4.99764 l -0.10494,2.39653 -1.98562,0.63975 c -1.09207,0.35188 -1.87088,0.50852 -1.73069,0.34815 0.14067,-0.15995 0.92183,-0.5126 1.73696,-0.78269 l 1.48198,-0.4911 -0.23368,-5.07698 c -0.12855,-2.7924 -0.0451,-6.5323 0.18536,-8.31101 0.23046,-1.77869 0.13542,-4.42309 -0.21119,-5.87647 -0.60222,-2.52489 -0.5614,-2.713 0.91706,-4.22685 0.85102,-0.87139 2.38512,-2.09867 3.4091,-2.72722 1.84051,-1.12982 1.8701,-1.19167 2.58862,-5.41021 0.39976,-2.34702 0.68535,-5.20511 0.63464,-6.35134 l -0.0922,-2.08404 -1.2919,1.78028 c -0.71051,0.97919 -1.66635,2.32718 -2.12407,2.99554 -0.77011,1.12467 -1.11249,1.16405 -4.59103,0.52931 -4.02481,-0.73444 -4.06847,-0.71646 -6.42147,2.64978 -0.86891,1.243 -1.37689,2.78639 -1.54289,4.68776 l -0.24752,2.83464 -2.55709,1.54556 c -1.40638,0.8501 -2.69974,1.69169 -2.87412,1.87024 -0.17437,0.17855 0.56965,1.76063 1.65339,3.51573 1.08373,1.7551 2.03675,3.45785 2.11776,3.78383 0.10012,0.40266 -0.86388,1.12647 -3.00638,2.25727 l -3.15373,1.66456 0.1705,2.21877 c 0.0937,1.2203 0.23547,2.8374 0.31492,3.59351 l 0.14444,1.37476 -2.89791,1.56379 c -2.67139,1.44161 -4.41252,1.77458 -5.20948,0.99625 -0.175,-0.17091 0.28167,-0.25726 1.01463,-0.1921 z"
       id="path39"
       sodipodi:nodetypes="cscccscscssssscsssssssscssssscsscscsscsscsscsssscccssscssscssccsscsssssssccccssscsssssssssscscsscssssccscscssssssscssssscsssssccscsscc" />
    <path
       style="fill:#ffa161;stroke-width:1;fill-opacity:1;filter:url(#filter1625)"
       d="m 43.354828,263.75586 c -0.189309,-0.71187 -1.153752,-2.20047 -2.143163,-3.308 -1.494527,-1.67291 -1.901122,-2.52581 -2.402726,-5.04004 -0.721964,-3.61879 -3.279404,-7.52712 -4.756761,-7.26939 -0.503128,0.0878 -1.674218,0.0111 -2.602424,-0.17041 -2.409409,-0.47113 -3.623563,-3.2355 -3.948649,-8.99026 l -0.259642,-4.59626 -5.767501,-2.16979 c -3.172121,-1.19336 -6.119176,-2.30458 -6.549007,-2.46936 -0.429833,-0.16478 -2.417316,-0.57129 -4.416638,-0.90337 -3.027711,-0.50287 -3.7454405,-0.43431 -4.2953531,0.41033 -0.363129,0.55777 -0.3894535,1.24317 -0.0585,1.52312 1.6247572,1.37438 3.7185665,3.9704 5.8873561,7.29951 l 2.393845,3.67456 -1.171453,1.80957 c -0.64429,0.99526 -1.114333,1.91354 -1.044536,2.04061 0.06979,0.12707 1.955129,1.51991 4.189634,3.09521 l 4.062728,2.86419 1.619191,4.71966 c 0.926117,2.69948 2.410094,5.9183 3.466951,7.52001 l 1.847763,2.80035 -1.954688,-2.31959 c -1.445906,-1.71582 -2.453151,-3.5695 -3.869791,-7.12173 l -1.915095,-4.80216 -3.545854,-2.37798 c -5.269909,-3.53422 -5.427106,-3.5369 -5.862664,-0.10021 -0.202012,1.59404 -0.3867934,3.2004 -0.4106158,3.5697 -0.023815,0.36933 -0.7762498,1.86435 -1.6720633,3.32229 -0.8958198,1.45792 -1.6690717,2.75051 -1.718336,2.87241 -0.049283,0.12188 0.8918321,1.20345 2.0913202,2.40343 1.1994933,1.19999 2.2689029,2.36835 2.3764679,2.59637 0.146197,0.30992 -5.2573666,-4.13259 -5.5475056,-4.56085 -0.02978,-0.0439 0.7747421,-1.51871 1.7877838,-3.2773 1.2528876,-2.175 1.89504,-4.18281 2.0081114,-6.27887 0.1159719,-2.14978 0.7075231,-3.95504 1.9566004,-5.97099 l 1.790382,-2.88956 -2.433472,-3.50231 c -1.3384007,-1.92625 -3.2706957,-4.27179 -4.2939939,-5.2123 -1.0232635,-0.94052 -2.0002132,-1.96439 -2.1709693,-2.27526 -0.1707574,-0.31088 1.0663682,-2.37888 2.7491774,-4.59553 l 3.0596417,-4.0303 -1.3254214,-2.07895 c -1.2990476,-2.03756 -1.412661,-2.08313 -5.709367,-2.28918 -2.41117019,-0.11565 -4.6624695,-0.17077 -5.0028727,-0.12247 -0.3635999,0.0517 -0.6856432,-2.35067 -0.7806454,-5.82273 l -0.1617075,-5.9105 -3.6070128,-0.88403 c -2.721958,-0.66711 -4.4913411,-1.57786 -7.2110751,-3.71169 -4.074436,-3.19671 -3.941196,-2.41842 -1.336278,-7.80588 l 1.253667,-2.59282 -2.091058,-3.04098 -2.09105,-3.04097 2.268075,-3.84933 c 1.955423,-3.31867 2.998122,-6.55869 3.071397,-9.54382 0.02433,-0.99155 -2.578592,-2.28347 -8.197782,-4.06881 l -4.376542,-1.39052 -0.152661,-4.26644 -0.152656,-4.26642 -1.450881,-0.15838 c -0.797982,-0.0871 -1.592871,-0.0804 -1.766411,0.0149 -0.488813,0.26849 -3.366131,11.06073 -3.905192,14.64756 -0.836014,5.56278 -0.515795,6.92834 3.222674,13.74311 l 3.357629,6.12063 -2.383829,2.3296 c -1.3111,1.28129 -2.326003,2.6464 -2.255327,3.0336 0.07068,0.38722 1.334269,1.38219 2.80799,2.21105 1.47372,0.82886 3.792762,2.7597 5.153433,4.29076 1.884446,2.1204 3.367963,3.17039 6.225984,4.40654 l 3.752049,1.62284 -0.308363,4.09483 c -0.169602,2.25215 -0.472934,4.51192 -0.674063,5.02171 -0.531379,1.34685 0.205365,2.34091 2.664587,3.59528 1.195465,0.60976 2.0694921,1.16583 1.9422801,1.2357 -0.127219,0.0699 -1.4321061,-0.4767 -2.8997641,-1.21462 l -2.668461,-1.34166 0.525542,-3.49656 c 0.289045,-1.92311 0.494878,-4.40139 0.457391,-5.50731 l -0.06815,-2.01074 -3.462747,-1.30938 c -2.518022,-0.95214 -4.149394,-2.02208 -5.97954,-3.9217 -2.480945,-2.57512 -7.411447,-5.78486 -8.211298,-5.34553 -0.225694,0.124 -0.527591,1.16436 -0.670873,2.31197 -0.143284,1.14763 -1.061414,3.58549 -2.040288,5.41749 -1.905579,3.56639 -2.720535,7.30545 -2.640265,12.11371 0.05106,3.05834 -0.378538,3.25597 -0.704564,0.32414 -0.425067,-3.82258 0.541897,-9.65903 2.064168,-12.45883 0.862358,-1.58609 1.924532,-4.77628 2.360381,-7.08934 0.680644,-3.61217 1.086679,-4.48139 2.877757,-6.16063 1.146921,-1.07527 2.02459,-2.10428 1.950376,-2.28665 -0.07421,-0.18237 -0.280417,-0.80691 -0.458249,-1.38789 -0.177825,-0.58097 -1.631145,-2.85925 -3.229583,-5.06284 l -2.906265,-4.00654 -0.226688,-4.45232 c -0.214295,-4.20892 0.171283,-7.02535 2.233113,-16.31192 l 0.876774,-3.94898 -1.869659,-1.85631 c -2.578048,-2.55964 -3.358213,-4.2092 -3.688147,-7.79816 -0.281666,-3.0638 0.2324,-3.98013 2.165413,-3.85995 0.754196,0.0469 0.980952,0.62094 1.409568,3.5683 0.69333,4.76767 2.162864,6.21523 7.66598,7.55134 l 4.050503,0.98343 -0.03563,1.90108 c -0.04436,2.36672 0.263862,2.41045 5.582156,0.79197 4.338368,-1.32027 11.8261928,-2.05686 12.2918109,-1.20915 0.7961219,1.44942 1.5540219,6.80084 1.3085051,9.2391 -0.4009004,3.98136 1.3900015,7.14819 4.50177,7.96046 1.2299453,0.32106 3.7992984,1.39097 5.7096724,2.37759 1.9103822,0.98663 4.5335006,2.15084 5.8291646,2.58716 2.311556,0.77841 2.322971,0.79118 0.609034,0.68157 -0.960694,-0.0615 -3.593722,-0.9426 -5.8511837,-1.95811 -2.2574593,-1.01551 -5.218169,-2.15982 -6.57935389,-2.54291 -1.92544771,-0.54188 -2.83922511,-1.19187 -4.11606191,-2.92785 -1.4586641,-1.98318 -1.66288,-2.70587 -1.8362767,-6.49823 -0.3122977,-6.83044 -0.5112545,-7.17484 -4.0761607,-7.05623 -1.6594751,0.0552 -3.7192861,0.4818 -4.5774141,0.94771 -0.85779,0.46659 -3.009592,1.24124 -4.781093,1.72266 -1.771496,0.48145 -3.491677,1.01419 -3.822627,1.18387 -1.002273,0.5139 -0.02356,1.53669 1.950353,2.0382 2.299183,0.58414 10.030118,4.31522 10.3840191,5.01151 0.142416,0.28024 -0.07321,2.42632 -0.4792031,4.76907 -0.537539,3.10184 -1.294681,5.07121 -2.785686,7.24577 -1.126126,1.64241 -1.914221,3.22887 -1.751321,3.52545 0.628961,1.14508 5.7618071,2.87637 9.933728,3.35059 2.4012,0.27295 5.20830971,0.77858 6.2380058,1.12361 1.846155,0.61863 1.9042428,0.69957 4.1765163,5.81923 2.1529344,4.85076 2.4547563,5.30047 4.5938721,6.84463 1.6954238,1.22388 3.1632178,1.70371 5.6563978,1.84911 1.851776,0.10801 3.479197,0.4123 3.616498,0.67623 0.397294,0.76375 -0.08195,8.77546 -0.481649,8.05152 -0.198306,-0.35874 -0.334232,-2.14641 -0.302461,-3.97235 l 0.05778,-3.3199 -2.782275,-0.34857 c -1.530241,-0.1917 -2.910346,-0.27849 -3.066886,-0.19284 -0.15655,0.0856 -1.490842,-0.59511 -2.9651101,-1.51277 -2.5253064,-1.57186 -2.8399856,-1.9685 -5.4357802,-6.85144 l -2.7552866,-5.18298 -3.5481381,-0.5967 c -1.9514618,-0.32817 -4.6042649,-0.56442 -5.8950979,-0.52498 -1.290846,0.0394 -2.6364771,-0.17319 -2.9903151,-0.4725 -0.835552,-0.7068 -1.600689,-0.28106 -1.107727,0.61643 0.210129,0.38255 -0.307466,2.23212 -1.150219,4.11012 -1.69694,3.78144 -1.697657,3.77951 2.483261,6.65762 1.2632451,0.86961 3.9453131,1.96714 5.96016,2.43895 l 3.6633538,0.85786 -0.1186106,5.60618 c -0.065233,3.08341 0.090081,5.72428 0.34513051,5.8686 0.3358714,0.19006 6.29113579,0.6204 8.53431699,0.6167 0.058509,-4.4e-4 0.9770932,1.23247 2.0411837,2.73904 l 1.9347146,2.73923 -1.405511,2.06874 c -0.7730374,1.13779 -1.3046489,2.25235 -1.1813697,2.4768 0.123277,0.22444 1.2526387,0.5628 2.5096877,0.7519 1.960625,0.29497 14.251676,4.90164 16.318103,6.11604 0.423238,0.24872 0.746297,2.31976 0.81132,5.20112 0.07334,3.25017 0.439487,5.39126 1.140099,6.6668 0.919945,1.67484 1.320035,1.90272 3.683034,2.09769 l 2.650977,0.21872 1.803997,4.04851 c 0.992195,2.22666 2.778438,5.93147 3.969437,8.23288 1.190979,2.30142 2.075802,4.45288 1.966242,4.78103 -0.109556,0.32815 -0.354077,0.0142 -0.543407,-0.69768 z"
       id="path1575" />
    <path
       style="fill:#fff4ec;stroke-width:1;fill-opacity:1"
       d="m 43.354828,263.75586 c -0.189309,-0.71187 -1.153752,-2.20047 -2.143163,-3.308 -1.494527,-1.67291 -1.901122,-2.52581 -2.402726,-5.04004 -0.721964,-3.61879 -3.279404,-7.52712 -4.756761,-7.26939 -0.503128,0.0878 -1.674218,0.0111 -2.602424,-0.17041 -2.409409,-0.47113 -3.623563,-3.2355 -3.948649,-8.99026 l -0.259642,-4.59626 -5.767501,-2.16979 c -3.172121,-1.19336 -6.119176,-2.30458 -6.549007,-2.46936 -0.429833,-0.16478 -2.417316,-0.57129 -4.416638,-0.90337 -3.027711,-0.50287 -3.7454405,-0.43431 -4.2953531,0.41033 -0.363129,0.55777 -0.3894535,1.24317 -0.0585,1.52312 1.6247572,1.37438 3.7185665,3.9704 5.8873561,7.29951 l 2.393845,3.67456 -1.171453,1.80957 c -0.64429,0.99526 -1.114333,1.91354 -1.044536,2.04061 0.06979,0.12707 1.955129,1.51991 4.189634,3.09521 l 4.062728,2.86419 1.619191,4.71966 c 0.926117,2.69948 2.410094,5.9183 3.466951,7.52001 l 1.847763,2.80035 -1.954688,-2.31959 c -1.445906,-1.71582 -2.453151,-3.5695 -3.869791,-7.12173 l -1.915095,-4.80216 -3.545854,-2.37798 c -5.269909,-3.53422 -5.427106,-3.5369 -5.862664,-0.10021 -0.202012,1.59404 -0.3867934,3.2004 -0.4106158,3.5697 -0.023815,0.36933 -0.7762498,1.86435 -1.6720633,3.32229 -0.8958198,1.45792 -1.6690717,2.75051 -1.718336,2.87241 -0.049283,0.12188 0.8918321,1.20345 2.0913202,2.40343 1.1994933,1.19999 2.2689029,2.36835 2.3764679,2.59637 0.146197,0.30992 -5.2573666,-4.13259 -5.5475056,-4.56085 -0.02978,-0.0439 0.7747421,-1.51871 1.7877838,-3.2773 1.2528876,-2.175 1.89504,-4.18281 2.0081114,-6.27887 0.1159719,-2.14978 0.7075231,-3.95504 1.9566004,-5.97099 l 1.790382,-2.88956 -2.433472,-3.50231 c -1.3384007,-1.92625 -3.2706957,-4.27179 -4.2939939,-5.2123 -1.0232635,-0.94052 -2.0002132,-1.96439 -2.1709693,-2.27526 -0.1707574,-0.31088 1.0663682,-2.37888 2.7491774,-4.59553 l 3.0596417,-4.0303 -1.3254214,-2.07895 c -1.2990476,-2.03756 -1.412661,-2.08313 -5.709367,-2.28918 -2.41117019,-0.11565 -4.6624695,-0.17077 -5.0028727,-0.12247 -0.3635999,0.0517 -0.6856432,-2.35067 -0.7806454,-5.82273 l -0.1617075,-5.9105 -3.6070128,-0.88403 c -2.721958,-0.66711 -4.4913411,-1.57786 -7.2110751,-3.71169 -4.074436,-3.19671 -3.941196,-2.41842 -1.336278,-7.80588 l 1.253667,-2.59282 -2.091058,-3.04098 -2.09105,-3.04097 2.268075,-3.84933 c 1.955423,-3.31867 2.998122,-6.55869 3.071397,-9.54382 0.02433,-0.99155 -2.578592,-2.28347 -8.197782,-4.06881 l -4.376542,-1.39052 -0.152661,-4.26644 -0.152656,-4.26642 -1.450881,-0.15838 c -0.797982,-0.0871 -1.592871,-0.0804 -1.766411,0.0149 -0.488813,0.26849 -3.366131,11.06073 -3.905192,14.64756 -0.836014,5.56278 -0.515795,6.92834 3.222674,13.74311 l 3.357629,6.12063 -2.383829,2.3296 c -1.3111,1.28129 -2.326003,2.6464 -2.255327,3.0336 0.07068,0.38722 1.334269,1.38219 2.80799,2.21105 1.47372,0.82886 3.792762,2.7597 5.153433,4.29076 1.884446,2.1204 3.367963,3.17039 6.225984,4.40654 l 3.752049,1.62284 -0.308363,4.09483 c -0.169602,2.25215 -0.472934,4.51192 -0.674063,5.02171 -0.531379,1.34685 0.205365,2.34091 2.664587,3.59528 1.195465,0.60976 2.0694921,1.16583 1.9422801,1.2357 -0.127219,0.0699 -1.4321061,-0.4767 -2.8997641,-1.21462 l -2.668461,-1.34166 0.525542,-3.49656 c 0.289045,-1.92311 0.494878,-4.40139 0.457391,-5.50731 l -0.06815,-2.01074 -3.462747,-1.30938 c -2.518022,-0.95214 -4.149394,-2.02208 -5.97954,-3.9217 -2.480945,-2.57512 -7.411447,-5.78486 -8.211298,-5.34553 -0.225694,0.124 -0.527591,1.16436 -0.670873,2.31197 -0.143284,1.14763 -1.061414,3.58549 -2.040288,5.41749 -1.905579,3.56639 -2.720535,7.30545 -2.640265,12.11371 0.05106,3.05834 -0.378538,3.25597 -0.704564,0.32414 -0.425067,-3.82258 0.541897,-9.65903 2.064168,-12.45883 0.862358,-1.58609 1.924532,-4.77628 2.360381,-7.08934 0.680644,-3.61217 1.086679,-4.48139 2.877757,-6.16063 1.146921,-1.07527 2.02459,-2.10428 1.950376,-2.28665 -0.07421,-0.18237 -0.280417,-0.80691 -0.458249,-1.38789 -0.177825,-0.58097 -1.631145,-2.85925 -3.229583,-5.06284 l -2.906265,-4.00654 -0.226688,-4.45232 c -0.214295,-4.20892 0.171283,-7.02535 2.233113,-16.31192 l 0.876774,-3.94898 -1.869659,-1.85631 c -2.578048,-2.55964 -3.358213,-4.2092 -3.688147,-7.79816 -0.281666,-3.0638 0.2324,-3.98013 2.165413,-3.85995 0.754196,0.0469 0.980952,0.62094 1.409568,3.5683 0.69333,4.76767 2.162864,6.21523 7.66598,7.55134 l 4.050503,0.98343 -0.03563,1.90108 c -0.04436,2.36672 0.263862,2.41045 5.582156,0.79197 4.338368,-1.32027 11.8261928,-2.05686 12.2918109,-1.20915 0.7961219,1.44942 1.5540219,6.80084 1.3085051,9.2391 -0.4009004,3.98136 1.3900015,7.14819 4.50177,7.96046 1.2299453,0.32106 3.7992984,1.39097 5.7096724,2.37759 1.9103822,0.98663 4.5335006,2.15084 5.8291646,2.58716 2.311556,0.77841 2.322971,0.79118 0.609034,0.68157 -0.960694,-0.0615 -3.593722,-0.9426 -5.8511837,-1.95811 -2.2574593,-1.01551 -5.218169,-2.15982 -6.57935389,-2.54291 -1.92544771,-0.54188 -2.83922511,-1.19187 -4.11606191,-2.92785 -1.4586641,-1.98318 -1.66288,-2.70587 -1.8362767,-6.49823 -0.3122977,-6.83044 -0.5112545,-7.17484 -4.0761607,-7.05623 -1.6594751,0.0552 -3.7192861,0.4818 -4.5774141,0.94771 -0.85779,0.46659 -3.009592,1.24124 -4.781093,1.72266 -1.771496,0.48145 -3.491677,1.01419 -3.822627,1.18387 -1.002273,0.5139 -0.02356,1.53669 1.950353,2.0382 2.299183,0.58414 10.030118,4.31522 10.3840191,5.01151 0.142416,0.28024 -0.07321,2.42632 -0.4792031,4.76907 -0.537539,3.10184 -1.294681,5.07121 -2.785686,7.24577 -1.126126,1.64241 -1.914221,3.22887 -1.751321,3.52545 0.628961,1.14508 5.7618071,2.87637 9.933728,3.35059 2.4012,0.27295 5.20830971,0.77858 6.2380058,1.12361 1.846155,0.61863 1.9042428,0.69957 4.1765163,5.81923 2.1529344,4.85076 2.4547563,5.30047 4.5938721,6.84463 1.6954238,1.22388 3.1632178,1.70371 5.6563978,1.84911 1.851776,0.10801 3.479197,0.4123 3.616498,0.67623 0.397294,0.76375 -0.08195,8.77546 -0.481649,8.05152 -0.198306,-0.35874 -0.334232,-2.14641 -0.302461,-3.97235 l 0.05778,-3.3199 -2.782275,-0.34857 c -1.530241,-0.1917 -2.910346,-0.27849 -3.066886,-0.19284 -0.15655,0.0856 -1.490842,-0.59511 -2.9651101,-1.51277 -2.5253064,-1.57186 -2.8399856,-1.9685 -5.4357802,-6.85144 l -2.7552866,-5.18298 -3.5481381,-0.5967 c -1.9514618,-0.32817 -4.6042649,-0.56442 -5.8950979,-0.52498 -1.290846,0.0394 -2.6364771,-0.17319 -2.9903151,-0.4725 -0.835552,-0.7068 -1.600689,-0.28106 -1.107727,0.61643 0.210129,0.38255 -0.307466,2.23212 -1.150219,4.11012 -1.69694,3.78144 -1.697657,3.77951 2.483261,6.65762 1.2632451,0.86961 3.9453131,1.96714 5.96016,2.43895 l 3.6633538,0.85786 -0.1186106,5.60618 c -0.065233,3.08341 0.090081,5.72428 0.34513051,5.8686 0.3358714,0.19006 6.29113579,0.6204 8.53431699,0.6167 0.058509,-4.4e-4 0.9770932,1.23247 2.0411837,2.73904 l 1.9347146,2.73923 -1.405511,2.06874 c -0.7730374,1.13779 -1.3046489,2.25235 -1.1813697,2.4768 0.123277,0.22444 1.2526387,0.5628 2.5096877,0.7519 1.960625,0.29497 14.251676,4.90164 16.318103,6.11604 0.423238,0.24872 0.746297,2.31976 0.81132,5.20112 0.07334,3.25017 0.439487,5.39126 1.140099,6.6668 0.919945,1.67484 1.320035,1.90272 3.683034,2.09769 l 2.650977,0.21872 1.803997,4.04851 c 0.992195,2.22666 2.778438,5.93147 3.969437,8.23288 1.190979,2.30142 2.075802,4.45288 1.966242,4.78103 -0.109556,0.32815 -0.354077,0.0142 -0.543407,-0.69768 z"
       id="path27" />
    <path
       style="fill:#d324ff;stroke-width:0.999999;filter:url(#filter1723);fill-opacity:1"
       d="m 195.36127,349.28638 c -0.0377,-1.35969 0.30207,-4.95076 0.75503,-7.98016 0.75038,-5.01853 0.74547,-5.78351 -0.0553,-8.60806 -0.70488,-2.48644 -1.52167,-3.75679 -4.12657,-6.41812 l -3.24773,-3.31809 2.00957,-3.59345 c 1.675,-2.99516 2.46126,-3.82233 4.72252,-4.9682 3.58462,-1.81646 5.12639,-3.43793 5.58294,-5.87156 0.35903,-1.91383 0.22768,-2.15179 -2.96653,-5.37464 -3.16395,-3.19236 -3.33597,-3.4995 -3.22558,-5.76 0.12309,-2.52188 -0.39296,-4.82007 -1.08243,-4.82007 -0.22643,0 -0.95803,1.16649 -1.6258,2.5922 -0.83779,1.7887 -2.01876,3.14127 -3.80994,4.36358 -2.58272,1.76243 -2.59768,1.79012 -2.96199,5.48744 -0.2014,2.04384 -0.20049,5.1805 0.003,6.97036 0.34772,3.07348 0.23929,3.52551 -1.95152,8.13561 -1.27585,2.6847 -2.42351,4.7775 -2.55037,4.65064 -0.12681,-0.12682 0.63542,-2.25519 1.69395,-4.72966 l 1.9246,-4.49901 -0.32596,-7.56697 -0.32596,-7.56697 2.57812,-1.84252 c 1.99587,-1.42641 2.93999,-2.64063 4.18045,-5.37642 1.39634,-3.07953 1.57733,-4.02919 1.40782,-7.38624 -0.18456,-3.6549 -0.31375,-3.98779 -2.52075,-6.49506 -2.25391,-2.56057 -2.31532,-2.72734 -1.97573,-5.36469 0.19277,-1.49708 0.69468,-4.42454 1.11537,-6.50545 0.89002,-4.40252 0.9585,-6.03281 0.27123,-6.45756 -0.39458,-0.24388 -7.22901,2.92072 -8.02343,3.71515 -0.11079,0.11079 0.50912,1.87132 1.3776,3.91224 0.86849,2.04092 1.7503,5.16649 1.95959,6.9457 0.20928,1.77921 0.49279,3.62506 0.63002,4.10187 0.33775,1.17352 -4.96439,3.49306 -9.09683,3.97963 -3.44895,0.4061 -3.39202,0.2889 -2.31984,4.7764 0.73629,3.08165 0.72164,3.19318 -0.83,6.32054 -0.86873,1.75094 -1.59493,3.98765 -1.61377,4.97047 -0.0325,1.69547 -0.0609,1.72032 -0.55471,0.48529 -0.40226,-1.00601 -0.19125,-2.14072 0.9291,-4.9963 l 1.44956,-3.69466 -0.90831,-4.13367 c -0.49957,-2.27351 -0.80625,-4.23572 -0.68149,-4.36046 0.12474,-0.12474 1.65094,-0.36774 3.39157,-0.53999 2.67192,-0.26442 8.29934,-2.37141 8.29934,-3.10747 0,-1.95548 -2.02305,-8.60413 -3.5344,-11.6156 -1.07803,-2.14804 -1.87912,-3.96296 -1.78019,-4.03315 1.65884,-1.17719 7.5722,-4.64615 7.92006,-4.64615 1.01409,0 2.20905,-1.90895 1.69945,-2.71483 -0.27769,-0.43913 -0.5086,-0.97811 -0.51316,-1.19775 -0.004,-0.21964 1.93752,-1.37766 4.31571,-2.57339 2.3782,-1.19574 4.32399,-2.41196 4.32399,-2.70274 0,-0.29076 -0.45753,-1.73277 -1.01673,-3.20446 l -1.01673,-2.67581 1.8464,-2.74176 1.8464,-2.74174 -0.83196,-2.80152 c -0.89245,-3.00516 -0.73261,-3.47658 1.27442,-3.75929 1.1736,-0.16532 1.38241,0.1501 2.29547,3.46753 l 1.00444,3.64938 -1.89011,2.6309 c -1.03957,1.44699 -1.89011,2.84343 -1.89011,3.10321 0,0.25976 1.39854,3.27102 3.10786,6.69167 2.9968,5.99709 3.1044,6.36036 3.0111,10.16487 -0.0771,3.14176 -0.43492,4.6681 -1.75662,7.49254 -0.91292,1.95085 -1.65986,3.61849 -1.65986,3.70585 0,0.0873 1.18285,0.32153 2.62854,0.52036 1.75974,0.24202 3.28676,0.90408 4.62002,2.00306 l 1.99149,1.64155 -0.16093,8.28259 c -0.10816,5.57022 -0.32044,7.89566 -0.64811,7.101 -0.26796,-0.64987 -0.43067,-3.44125 -0.36156,-6.20307 0.21734,-8.68605 -0.70494,-10.66525 -5.2466,-11.25904 -1.10666,-0.14469 -2.78555,-0.37937 -3.73089,-0.52151 l -1.71879,-0.25846 1.65699,-3.9012 c 0.91134,-2.14567 1.84639,-5.34796 2.07787,-7.11619 0.38257,-2.92223 0.27857,-3.49693 -1.14222,-6.31148 -0.8597,-1.70308 -1.79151,-3.23766 -2.07069,-3.4102 -0.66116,-0.40863 -7.08358,2.37544 -7.08358,3.07067 0,0.29284 0.41679,1.70591 0.92618,3.14017 0.89405,2.51723 0.88453,2.81047 -0.27441,8.45025 -0.66032,3.21339 -1.19612,6.32898 -1.19067,6.92353 0.006,0.59455 0.97762,2.29712 2.16039,3.78349 1.98448,2.49383 2.15095,2.96211 2.15626,6.06518 0.004,2.4022 0.3917,4.23543 1.35699,6.41811 0.86514,1.95625 1.35124,4.04679 1.35124,5.81123 0,2.64491 0.13082,2.88775 3.24914,6.0341 l 3.24916,3.27829 -0.85983,2.52346 -0.85983,2.52347 3.32789,4.68255 c 1.83033,2.57541 3.44023,4.97534 3.57756,5.3332 0.13731,0.35786 -0.49247,2.66343 -1.39952,5.12352 -1.84484,5.00347 -1.74292,6.38182 0.85042,11.49952 0.71305,1.40715 1.27222,2.99217 1.24259,3.52229 -0.0463,0.8289 -0.10361,0.81248 -0.40908,-0.11715 -0.19536,-0.59455 -0.92206,-2.14668 -1.61486,-3.44918 -0.69281,-1.30249 -1.57845,-3.42743 -1.96808,-4.72206 -0.64286,-2.13609 -0.58847,-2.73158 0.58774,-6.4355 0.71289,-2.24489 1.29615,-4.33406 1.29615,-4.64258 0,-0.47215 -1.47968,-2.49511 -5.81717,-7.95289 -0.61308,-0.77142 -1.03938,-0.68271 -4.19335,0.87259 -3.11957,1.53833 -3.6705,2.05675 -4.94303,4.65137 l -1.43214,2.92009 2.71963,3.16335 c 4.41373,5.13384 5.27868,9.60415 3.31947,17.1558 -0.29987,1.15581 -0.73917,3.58806 -0.97624,5.40498 -0.41473,3.17845 -0.43363,3.20992 -0.49958,0.83133 z"
       id="path35" />
    <path
       style="fill:#f7d5ff;stroke-width:0.999999;fill-opacity:1"
       d="m 195.36127,349.28638 c -0.0377,-1.35969 0.30207,-4.95076 0.75503,-7.98016 0.75038,-5.01853 0.74547,-5.78351 -0.0553,-8.60806 -0.70488,-2.48644 -1.52167,-3.75679 -4.12657,-6.41812 l -3.24773,-3.31809 2.00957,-3.59345 c 1.675,-2.99516 2.46126,-3.82233 4.72252,-4.9682 3.58462,-1.81646 5.12639,-3.43793 5.58294,-5.87156 0.35903,-1.91383 0.22768,-2.15179 -2.96653,-5.37464 -3.16395,-3.19236 -3.33597,-3.4995 -3.22558,-5.76 0.12309,-2.52188 -0.39296,-4.82007 -1.08243,-4.82007 -0.22643,0 -0.95803,1.16649 -1.6258,2.5922 -0.83779,1.7887 -2.01876,3.14127 -3.80994,4.36358 -2.58272,1.76243 -2.59768,1.79012 -2.96199,5.48744 -0.2014,2.04384 -0.20049,5.1805 0.003,6.97036 0.34772,3.07348 0.23929,3.52551 -1.95152,8.13561 -1.27585,2.6847 -2.42351,4.7775 -2.55037,4.65064 -0.12681,-0.12682 0.63542,-2.25519 1.69395,-4.72966 l 1.9246,-4.49901 -0.32596,-7.56697 -0.32596,-7.56697 2.57812,-1.84252 c 1.99587,-1.42641 2.93999,-2.64063 4.18045,-5.37642 1.39634,-3.07953 1.57733,-4.02919 1.40782,-7.38624 -0.18456,-3.6549 -0.31375,-3.98779 -2.52075,-6.49506 -2.25391,-2.56057 -2.31532,-2.72734 -1.97573,-5.36469 0.19277,-1.49708 0.69468,-4.42454 1.11537,-6.50545 0.89002,-4.40252 0.9585,-6.03281 0.27123,-6.45756 -0.39458,-0.24388 -7.22901,2.92072 -8.02343,3.71515 -0.11079,0.11079 0.50912,1.87132 1.3776,3.91224 0.86849,2.04092 1.7503,5.16649 1.95959,6.9457 0.20928,1.77921 0.49279,3.62506 0.63002,4.10187 0.33775,1.17352 -4.96439,3.49306 -9.09683,3.97963 -3.44895,0.4061 -3.39202,0.2889 -2.31984,4.7764 0.73629,3.08165 0.72164,3.19318 -0.83,6.32054 -0.86873,1.75094 -1.59493,3.98765 -1.61377,4.97047 -0.0325,1.69547 -0.0609,1.72032 -0.55471,0.48529 -0.40226,-1.00601 -0.19125,-2.14072 0.9291,-4.9963 l 1.44956,-3.69466 -0.90831,-4.13367 c -0.49957,-2.27351 -0.80625,-4.23572 -0.68149,-4.36046 0.12474,-0.12474 1.65094,-0.36774 3.39157,-0.53999 2.67192,-0.26442 8.29934,-2.37141 8.29934,-3.10747 0,-1.95548 -2.02305,-8.60413 -3.5344,-11.6156 -1.07803,-2.14804 -1.87912,-3.96296 -1.78019,-4.03315 1.65884,-1.17719 7.5722,-4.64615 7.92006,-4.64615 1.01409,0 2.20905,-1.90895 1.69945,-2.71483 -0.27769,-0.43913 -0.5086,-0.97811 -0.51316,-1.19775 -0.004,-0.21964 1.93752,-1.37766 4.31571,-2.57339 2.3782,-1.19574 4.32399,-2.41196 4.32399,-2.70274 0,-0.29076 -0.45753,-1.73277 -1.01673,-3.20446 l -1.01673,-2.67581 1.8464,-2.74176 1.8464,-2.74174 -0.83196,-2.80152 c -0.89245,-3.00516 -0.73261,-3.47658 1.27442,-3.75929 1.1736,-0.16532 1.38241,0.1501 2.29547,3.46753 l 1.00444,3.64938 -1.89011,2.6309 c -1.03957,1.44699 -1.89011,2.84343 -1.89011,3.10321 0,0.25976 1.39854,3.27102 3.10786,6.69167 2.9968,5.99709 3.1044,6.36036 3.0111,10.16487 -0.0771,3.14176 -0.43492,4.6681 -1.75662,7.49254 -0.91292,1.95085 -1.65986,3.61849 -1.65986,3.70585 0,0.0873 1.18285,0.32153 2.62854,0.52036 1.75974,0.24202 3.28676,0.90408 4.62002,2.00306 l 1.99149,1.64155 -0.16093,8.28259 c -0.10816,5.57022 -0.32044,7.89566 -0.64811,7.101 -0.26796,-0.64987 -0.43067,-3.44125 -0.36156,-6.20307 0.21734,-8.68605 -0.70494,-10.66525 -5.2466,-11.25904 -1.10666,-0.14469 -2.78555,-0.37937 -3.73089,-0.52151 l -1.71879,-0.25846 1.65699,-3.9012 c 0.91134,-2.14567 1.84639,-5.34796 2.07787,-7.11619 0.38257,-2.92223 0.27857,-3.49693 -1.14222,-6.31148 -0.8597,-1.70308 -1.79151,-3.23766 -2.07069,-3.4102 -0.66116,-0.40863 -7.08358,2.37544 -7.08358,3.07067 0,0.29284 0.41679,1.70591 0.92618,3.14017 0.89405,2.51723 0.88453,2.81047 -0.27441,8.45025 -0.66032,3.21339 -1.19612,6.32898 -1.19067,6.92353 0.006,0.59455 0.97762,2.29712 2.16039,3.78349 1.98448,2.49383 2.15095,2.96211 2.15626,6.06518 0.004,2.4022 0.3917,4.23543 1.35699,6.41811 0.86514,1.95625 1.35124,4.04679 1.35124,5.81123 0,2.64491 0.13082,2.88775 3.24914,6.0341 l 3.24916,3.27829 -0.85983,2.52346 -0.85983,2.52347 3.32789,4.68255 c 1.83033,2.57541 3.44023,4.97534 3.57756,5.3332 0.13731,0.35786 -0.49247,2.66343 -1.39952,5.12352 -1.84484,5.00347 -1.74292,6.38182 0.85042,11.49952 0.71305,1.40715 1.27222,2.99217 1.24259,3.52229 -0.0463,0.8289 -0.10361,0.81248 -0.40908,-0.11715 -0.19536,-0.59455 -0.92206,-2.14668 -1.61486,-3.44918 -0.69281,-1.30249 -1.57845,-3.42743 -1.96808,-4.72206 -0.64286,-2.13609 -0.58847,-2.73158 0.58774,-6.4355 0.71289,-2.24489 1.29615,-4.33406 1.29615,-4.64258 0,-0.47215 -1.47968,-2.49511 -5.81717,-7.95289 -0.61308,-0.77142 -1.03938,-0.68271 -4.19335,0.87259 -3.11957,1.53833 -3.6705,2.05675 -4.94303,4.65137 l -1.43214,2.92009 2.71963,3.16335 c 4.41373,5.13384 5.27868,9.60415 3.31947,17.1558 -0.29987,1.15581 -0.73917,3.58806 -0.97624,5.40498 -0.41473,3.17845 -0.43363,3.20992 -0.49958,0.83133 z"
       id="path1629" />
  </g>
</svg>
