<?xml version="1.0" encoding="UTF-8"?>
<svg width="1920" height="1080" version="1.1" viewBox="0 0 508 286" xmlns="http://www.w3.org/2000/svg" xmlns:cc="http://creativecommons.org/ns#" xmlns:dc="http://purl.org/dc/elements/1.1/" xmlns:rdf="http://www.w3.org/1999/02/22-rdf-syntax-ns#"><defs><filter id="d" x="-.19" y="-.14" width="1.4" height="1.3" color-interpolation-filters="sRGB"><feGaussianBlur stdDeviation="7.9489679"/></filter><filter id="c" x="-.21" y="-.14" width="1.4" height="1.3" color-interpolation-filters="sRGB"><feGaussianBlur stdDeviation="7.1813329"/></filter><filter id="b" x="-.72" y="-.24" width="2.4" height="1.5" color-interpolation-filters="sRGB"><feGaussianBlur stdDeviation="11.740643"/></filter><filter id="a" x="-.14" y="-.14" width="1.3" height="1.3" color-interpolation-filters="sRGB"><feGaussianBlur stdDeviation="5.7809655"/></filter></defs><metadata><rdf:RDF><cc:Work rdf:about=""><dc:format>image/svg+xml</dc:format><dc:type rdf:resource="http://purl.org/dc/dcmitype/StillImage"/><dc:title/></cc:Work></rdf:RDF></metadata><g transform="translate(33 -69)"><path transform="matrix(.69 0 0 .69 63 3.5)" d="m204 86c-0.27-0.0046-0.63 0.064-1.1 0.18-0.57 0.14-1.1 0.31-1.6 0.46-0.22 0.076-0.4 0.15-0.54 0.21-0.092 0.042-0.11 0.058-0.14 0.076 3e-3 0.04 7e-3 0.08 0.022 0.15 0.04 0.19 0.12 0.48 0.24 0.81 0.24 0.67 0.62 1.6 1.1 2.5 0.46 0.96 0.89 1.9 1.2 2.6 0.15 0.35 0.28 0.64 0.37 0.87 0.044 0.11 0.078 0.21 0.1 0.29 0.026 0.079 0.051 0.11 0.051 0.24 0 0.12-0.032 0.15-0.051 0.18-0.018 0.032-0.036 0.055-0.055 0.078-0.036 0.046-0.078 0.091-0.13 0.14-0.1 0.11-0.25 0.25-0.43 0.41-0.37 0.34-0.9 0.8-1.6 1.3-1.3 1.1-3.1 2.6-5.1 4.2-4 3.2-6 4.8-7 7-1 2.2-1.1 4.9-1.1 10-3e-3 1.3-0.07 2.6-0.18 3.6-0.053 0.51-0.12 0.95-0.19 1.3-0.071 0.35-0.13 0.59-0.27 0.8-0.13 0.19-0.32 0.33-0.58 0.5-0.26 0.17-0.58 0.36-0.95 0.55-0.74 0.39-1.7 0.81-2.6 1.2-2.1 0.8-5.1 2.3-7.4 3.6-1.2 0.66-2.2 1.3-2.9 1.8-0.26 0.19-0.41 0.32-0.56 0.46 0.059-0.011 0.094-0.011 0.16-0.029 0.36-0.097 0.84-0.29 1.3-0.54 0.53-0.29 1.7-0.8 3.2-1.4 1.5-0.62 3.3-1.3 5.1-2 3.2-1.2 4.8-1.8 5.7-2.5 0.41-0.32 0.63-0.62 0.79-1 0.16-0.42 0.27-0.96 0.39-1.7 0.94-5.5 1.6-9 2-11 0.22-1.1 0.39-1.9 0.54-2.5s0.25-0.89 0.4-1.1c0.078-0.12 0.16-0.19 0.29-0.3s0.3-0.25 0.5-0.4c0.41-0.31 0.96-0.71 1.6-1.2 1.3-0.93 3.1-2.1 5-3.3 3.2-2 4.9-3.1 6-3.6 0.58-0.22 1-0.29 1.5-0.2s0.73 0.34 1.1 0.63c0.5 0.45 0.89 1.2 1.2 2.3 0.33 1 0.59 2.3 0.75 3.7 0.28 2.5 1 5.8 1.6 7.2 0.64 1.5 0.86 3.1 0.54 5.3s-1.2 5.3-2.7 10c-0.78 2.5-1.2 3.8-2.1 4.9s-2.1 1.8-4.4 3.2c-2.4 1.4-3.5 2.1-4.2 3s-0.94 2-1.4 4.3c-0.78 3.7-0.8 5.3-0.094 7.7 0.51 1.8 1.4 5.5 2.1 8.4 1.1 5 1.1 5.6-0.56 11l-1.7 5.1 2.1 2 0.053 0.051-1.5-2.2a0.31 0.31 0 0 1-0.029-0.29l1.9-4.6c1.6-3.9 1.8-5.2 1.4-9.4-0.28-2.7-1.2-6.6-2-8.7-1.4-3.5-1.4-4.2-0.29-8.1 0.51-1.8 0.93-2.9 1.6-3.8s1.5-1.4 2.8-2.1c0.83-0.42 1.6-0.75 2.3-0.95 0.32-0.097 0.61-0.16 0.85-0.18 0.24-0.022 0.47-0.051 0.67 0.16 0.19 0.19 0.21 0.37 0.27 0.64 0.062 0.27 0.11 0.62 0.16 1 0.089 0.8 0.14 1.8 0.14 2.9 0 2.3 0.69 4.6 2.5 7.4 1.8 2.8 4.7 6.1 9 11 1.6 1.7 3.2 3.3 4.3 4.7 0.59 0.7 1.1 1.3 1.5 1.8s0.62 0.89 0.72 1.2c0.14 0.43 0.22 0.83 0.16 1.2-0.058 0.41-0.26 0.82-0.61 1.3-0.71 0.87-2 1.9-4.5 3.7-0.39 0.3-0.55 0.52-0.58 1s0.11 1.3 0.45 2.5c0.76 2.7 1.1 4.5 0.68 5.9-0.4 1.5-1.5 2.5-3.4 4-0.94 0.71-1.8 1.4-2.4 2-0.31 0.28-0.56 0.52-0.72 0.7-0.082 0.091-0.14 0.17-0.17 0.21-0.033 0.049-0.018 0.088-0.018-0.016 0-0.054 0.031 0.15 0.11 0.39 0.077 0.23 0.19 0.55 0.33 0.91 0.28 0.73 0.67 1.7 1.1 2.6l1.6 3.5a0.31 0.31 0 0 1-6e-3 0.27l-3.4 6.8a0.31 0.31 0 0 1-2e-3 0l-3.4 6.8 0.72 5.1c0.4 2.9 0.95 6.1 1.2 7 0.05 0.2 0.072 0.2 0.12 0.36-6e-3 -0.061 2e-3 -0.07-6e-3 -0.13-0.07-0.61-0.2-1.4-0.4-2.2-1.4-6.2-1-9.9 1.7-15l2.5-4.7a0.31 0.31 0 0 1 0.59 0.13l0.23 3.5c0.19 2.9 0.66 3.8 3.2 6.3 1.3 1.3 2.1 2.2 2.6 3.1 0.47 0.98 0.61 2 0.65 3.5l0.029 1.1 0.22-0.9c0.37-1.5 0.52-2.3 0.23-3.1-0.29-0.82-1.1-1.8-2.7-3.7-1.6-1.9-2.4-2.9-2.8-4.1-0.4-1.1-0.32-2.3-0.14-4.5 0.27-3.2 6.2e-4 -5.2-1-7.6-1-2.4-1.5-3.8-1.2-5.1 0.32-1.3 1.4-2.3 3.4-3.7 1.5-1.1 2.3-1.8 2.7-2.4 0.39-0.59 0.41-1.1 0.25-1.9-0.72-3.6-1.1-5.5-0.93-6.7 0.085-0.63 0.33-1.1 0.72-1.5 0.39-0.41 0.91-0.77 1.6-1.2 1.5-1 2.6-1.7 3.3-2.3 0.75-0.57 1.1-0.99 1.3-1.3 0.13-0.34 0.061-0.66-0.24-1.2-0.3-0.56-0.84-1.3-1.5-2.3-1.3-2-4.8-6.1-7.7-9.2-1.5-1.5-2.8-3-3.7-4.1-0.48-0.58-0.87-1.1-1.1-1.5-0.14-0.2-0.25-0.36-0.33-0.51-0.08-0.14-0.15-0.24-0.15-0.43 0-0.26 0.13-0.44 0.29-0.62 0.16-0.19 0.38-0.37 0.64-0.56 0.52-0.38 1.2-0.77 2-1.1 1.3-0.55 2.1-0.84 3.2-0.69 1 0.16 2.2 0.73 4.3 1.8 1.9 0.96 3.1 1.5 4.1 1.7s1.7 0.12 2.8-0.19c2.2-0.64 3.7-0.91 4.8-0.59s1.9 1.2 2.6 2.7c0.66 1.4 2.7 3.6 4.3 4.7 1.8 1.2 4.7 3.5 6.6 5.1 1.5 1.3 2.4 2.2 2.9 3.1 0.51 0.93 0.62 1.9 0.62 3.3 2e-3 1.7 0.34 5.2 0.74 7.7 0.31 2 0.6 3.2 1.1 4.1s1.2 1.7 2.4 2.7c1.3 1.1 3.1 2.4 4.4 3.2-0.11-0.096-0.16-0.14-0.28-0.24-3.5-3-5.1-4.2-6-5.9s-0.86-3.7-1.1-8.1c-0.28-4.6-0.45-6.8-1.4-8.6s-2.6-3-6.1-5.6c-2-1.5-3.8-3.2-5.1-4.8-1.3-1.6-2.2-3.1-2.3-4.3-0.016-0.29 0.16-0.49 0.36-0.68s0.48-0.37 0.82-0.57c0.68-0.39 1.6-0.8 2.7-1.2 2.1-0.81 4.8-1.6 6.9-1.8 3.2-0.44 4.3-1 7-3.8l3.3-3.4a0.31 0.31 0 0 1 0.38-0.053l3.5 2c2 1.1 4.8 3.2 6.3 4.6 0.79 0.75 1.5 1.3 2 1.8 0.29 0.22 0.4 0.25 0.6 0.36-0.2-0.29-0.39-0.57-0.88-1.1-0.73-0.79-2.7-2.3-4.8-3.9-2.2-1.6-4.6-3.2-6.4-4.3 0.022 0.013-0.14-0.021-0.42 0.084-0.28 0.1-0.66 0.31-1.1 0.59-0.89 0.57-2 1.5-3.3 2.6-1.7 1.5-2.9 2.5-4 3.1-1.1 0.6-2 0.82-3.1 0.82-1.3 0-4.8 0.81-7.4 1.8-2.7 1-6.7 2.2-8.9 2.7-1.9 0.42-3 0.62-4.2 0.39-1.2-0.24-2.3-0.9-4.4-2.2l-4.3-2.5-8.1 2.8a0.31 0.31 0 0 1-0.39-0.19l-0.74-1.9c-1.6-4.1-0.82-9.9 2.4-20 1.6-4.9 2.4-7.3 2.6-8.9s-0.05-2.3-0.68-3.9c-0.35-0.9-0.61-1.8-0.74-2.5-0.064-0.36-0.097-0.67-0.092-0.93 6e-3 -0.26 0.018-0.49 0.22-0.69 0.12-0.12 0.24-0.15 0.37-0.18 0.13-0.033 0.29-0.054 0.47-0.07 0.36-0.032 0.83-0.039 1.4-0.023 1.1 0.03 2.5 0.15 4 0.35 2.9 0.4 8 0.93 11 1.2 2.8 0.21 4.3 0.35 5.4 0.83 1.2 0.48 2 1.3 3.3 2.8 3.2 3.6 8.9 5.5 13 4.3 0.78-0.22 1.4-0.43 1.8-0.62 0.099-0.045 0.15-0.08 0.22-0.12-0.31 5e-3 -0.69 0.03-1.3 0.15-1.3 0.25-3.9 0.031-6-0.45-3-0.7-4.5-1.7-7.1-4.7-2.1-2.5-3.8-3.6-4.9-3.6-0.61-0.02-2.2-0.27-4.4-0.65s-5-0.91-7.9-1.5l-10-2.1a0.31 0.31 0 0 1-0.25-0.27l-0.26-2.3c-0.062-0.55-0.41-1.5-0.92-2.5-0.51-0.98-1.2-2-1.9-2.9-1.5-1.8-3.3-4.9-4.2-6.9-0.53-1.2-0.91-2-1.2-2.5s-0.54-0.57-0.94-0.57z" fill="#005fff" filter="url(#d)" stroke-width="1.5"/><path transform="matrix(.69 0 0 .69 63 3.5)" d="m204 86c-0.27-0.0046-0.63 0.064-1.1 0.18-0.57 0.14-1.1 0.31-1.6 0.46-0.22 0.076-0.4 0.15-0.54 0.21-0.092 0.042-0.11 0.058-0.14 0.076 3e-3 0.04 7e-3 0.08 0.022 0.15 0.04 0.19 0.12 0.48 0.24 0.81 0.24 0.67 0.62 1.6 1.1 2.5 0.46 0.96 0.89 1.9 1.2 2.6 0.15 0.35 0.28 0.64 0.37 0.87 0.044 0.11 0.078 0.21 0.1 0.29 0.026 0.079 0.051 0.11 0.051 0.24 0 0.12-0.032 0.15-0.051 0.18-0.018 0.032-0.036 0.055-0.055 0.078-0.036 0.046-0.078 0.091-0.13 0.14-0.1 0.11-0.25 0.25-0.43 0.41-0.37 0.34-0.9 0.8-1.6 1.3-1.3 1.1-3.1 2.6-5.1 4.2-4 3.2-6 4.8-7 7-1 2.2-1.1 4.9-1.1 10-3e-3 1.3-0.07 2.6-0.18 3.6-0.053 0.51-0.12 0.95-0.19 1.3-0.071 0.35-0.13 0.59-0.27 0.8-0.13 0.19-0.32 0.33-0.58 0.5-0.26 0.17-0.58 0.36-0.95 0.55-0.74 0.39-1.7 0.81-2.6 1.2-2.1 0.8-5.1 2.3-7.4 3.6-1.2 0.66-2.2 1.3-2.9 1.8-0.26 0.19-0.41 0.32-0.56 0.46 0.059-0.011 0.094-0.011 0.16-0.029 0.36-0.097 0.84-0.29 1.3-0.54 0.53-0.29 1.7-0.8 3.2-1.4 1.5-0.62 3.3-1.3 5.1-2 3.2-1.2 4.8-1.8 5.7-2.5 0.41-0.32 0.63-0.62 0.79-1 0.16-0.42 0.27-0.96 0.39-1.7 0.94-5.5 1.6-9 2-11 0.22-1.1 0.39-1.9 0.54-2.5s0.25-0.89 0.4-1.1c0.078-0.12 0.16-0.19 0.29-0.3s0.3-0.25 0.5-0.4c0.41-0.31 0.96-0.71 1.6-1.2 1.3-0.93 3.1-2.1 5-3.3 3.2-2 4.9-3.1 6-3.6 0.58-0.22 1-0.29 1.5-0.2s0.73 0.34 1.1 0.63c0.5 0.45 0.89 1.2 1.2 2.3 0.33 1 0.59 2.3 0.75 3.7 0.28 2.5 1 5.8 1.6 7.2 0.64 1.5 0.86 3.1 0.54 5.3s-1.2 5.3-2.7 10c-0.78 2.5-1.2 3.8-2.1 4.9s-2.1 1.8-4.4 3.2c-2.4 1.4-3.5 2.1-4.2 3s-0.94 2-1.4 4.3c-0.78 3.7-0.8 5.3-0.094 7.7 0.51 1.8 1.4 5.5 2.1 8.4 1.1 5 1.1 5.6-0.56 11l-1.7 5.1 2.1 2 0.053 0.051-1.5-2.2a0.31 0.31 0 0 1-0.029-0.29l1.9-4.6c1.6-3.9 1.8-5.2 1.4-9.4-0.28-2.7-1.2-6.6-2-8.7-1.4-3.5-1.4-4.2-0.29-8.1 0.51-1.8 0.93-2.9 1.6-3.8s1.5-1.4 2.8-2.1c0.83-0.42 1.6-0.75 2.3-0.95 0.32-0.097 0.61-0.16 0.85-0.18 0.24-0.022 0.47-0.051 0.67 0.16 0.19 0.19 0.21 0.37 0.27 0.64 0.062 0.27 0.11 0.62 0.16 1 0.089 0.8 0.14 1.8 0.14 2.9 0 2.3 0.69 4.6 2.5 7.4 1.8 2.8 4.7 6.1 9 11 1.6 1.7 3.2 3.3 4.3 4.7 0.59 0.7 1.1 1.3 1.5 1.8s0.62 0.89 0.72 1.2c0.14 0.43 0.22 0.83 0.16 1.2-0.058 0.41-0.26 0.82-0.61 1.3-0.71 0.87-2 1.9-4.5 3.7-0.39 0.3-0.55 0.52-0.58 1s0.11 1.3 0.45 2.5c0.76 2.7 1.1 4.5 0.68 5.9-0.4 1.5-1.5 2.5-3.4 4-0.94 0.71-1.8 1.4-2.4 2-0.31 0.28-0.56 0.52-0.72 0.7-0.082 0.091-0.14 0.17-0.17 0.21-0.033 0.049-0.018 0.088-0.018-0.016 0-0.054 0.031 0.15 0.11 0.39 0.077 0.23 0.19 0.55 0.33 0.91 0.28 0.73 0.67 1.7 1.1 2.6l1.6 3.5a0.31 0.31 0 0 1-6e-3 0.27l-3.4 6.8a0.31 0.31 0 0 1-2e-3 0l-3.4 6.8 0.72 5.1c0.4 2.9 0.95 6.1 1.2 7 0.05 0.2 0.072 0.2 0.12 0.36-6e-3 -0.061 2e-3 -0.07-6e-3 -0.13-0.07-0.61-0.2-1.4-0.4-2.2-1.4-6.2-1-9.9 1.7-15l2.5-4.7a0.31 0.31 0 0 1 0.59 0.13l0.23 3.5c0.19 2.9 0.66 3.8 3.2 6.3 1.3 1.3 2.1 2.2 2.6 3.1 0.47 0.98 0.61 2 0.65 3.5l0.029 1.1 0.22-0.9c0.37-1.5 0.52-2.3 0.23-3.1-0.29-0.82-1.1-1.8-2.7-3.7-1.6-1.9-2.4-2.9-2.8-4.1-0.4-1.1-0.32-2.3-0.14-4.5 0.27-3.2 6.2e-4 -5.2-1-7.6-1-2.4-1.5-3.8-1.2-5.1 0.32-1.3 1.4-2.3 3.4-3.7 1.5-1.1 2.3-1.8 2.7-2.4 0.39-0.59 0.41-1.1 0.25-1.9-0.72-3.6-1.1-5.5-0.93-6.7 0.085-0.63 0.33-1.1 0.72-1.5 0.39-0.41 0.91-0.77 1.6-1.2 1.5-1 2.6-1.7 3.3-2.3 0.75-0.57 1.1-0.99 1.3-1.3 0.13-0.34 0.061-0.66-0.24-1.2-0.3-0.56-0.84-1.3-1.5-2.3-1.3-2-4.8-6.1-7.7-9.2-1.5-1.5-2.8-3-3.7-4.1-0.48-0.58-0.87-1.1-1.1-1.5-0.14-0.2-0.25-0.36-0.33-0.51-0.08-0.14-0.15-0.24-0.15-0.43 0-0.26 0.13-0.44 0.29-0.62 0.16-0.19 0.38-0.37 0.64-0.56 0.52-0.38 1.2-0.77 2-1.1 1.3-0.55 2.1-0.84 3.2-0.69 1 0.16 2.2 0.73 4.3 1.8 1.9 0.96 3.1 1.5 4.1 1.7s1.7 0.12 2.8-0.19c2.2-0.64 3.7-0.91 4.8-0.59s1.9 1.2 2.6 2.7c0.66 1.4 2.7 3.6 4.3 4.7 1.8 1.2 4.7 3.5 6.6 5.1 1.5 1.3 2.4 2.2 2.9 3.1 0.51 0.93 0.62 1.9 0.62 3.3 2e-3 1.7 0.34 5.2 0.74 7.7 0.31 2 0.6 3.2 1.1 4.1s1.2 1.7 2.4 2.7c1.3 1.1 3.1 2.4 4.4 3.2-0.11-0.096-0.16-0.14-0.28-0.24-3.5-3-5.1-4.2-6-5.9s-0.86-3.7-1.1-8.1c-0.28-4.6-0.45-6.8-1.4-8.6s-2.6-3-6.1-5.6c-2-1.5-3.8-3.2-5.1-4.8-1.3-1.6-2.2-3.1-2.3-4.3-0.016-0.29 0.16-0.49 0.36-0.68s0.48-0.37 0.82-0.57c0.68-0.39 1.6-0.8 2.7-1.2 2.1-0.81 4.8-1.6 6.9-1.8 3.2-0.44 4.3-1 7-3.8l3.3-3.4a0.31 0.31 0 0 1 0.38-0.053l3.5 2c2 1.1 4.8 3.2 6.3 4.6 0.79 0.75 1.5 1.3 2 1.8 0.29 0.22 0.4 0.25 0.6 0.36-0.2-0.29-0.39-0.57-0.88-1.1-0.73-0.79-2.7-2.3-4.8-3.9-2.2-1.6-4.6-3.2-6.4-4.3 0.022 0.013-0.14-0.021-0.42 0.084-0.28 0.1-0.66 0.31-1.1 0.59-0.89 0.57-2 1.5-3.3 2.6-1.7 1.5-2.9 2.5-4 3.1-1.1 0.6-2 0.82-3.1 0.82-1.3 0-4.8 0.81-7.4 1.8-2.7 1-6.7 2.2-8.9 2.7-1.9 0.42-3 0.62-4.2 0.39-1.2-0.24-2.3-0.9-4.4-2.2l-4.3-2.5-8.1 2.8a0.31 0.31 0 0 1-0.39-0.19l-0.74-1.9c-1.6-4.1-0.82-9.9 2.4-20 1.6-4.9 2.4-7.3 2.6-8.9s-0.05-2.3-0.68-3.9c-0.35-0.9-0.61-1.8-0.74-2.5-0.064-0.36-0.097-0.67-0.092-0.93 6e-3 -0.26 0.018-0.49 0.22-0.69 0.12-0.12 0.24-0.15 0.37-0.18 0.13-0.033 0.29-0.054 0.47-0.07 0.36-0.032 0.83-0.039 1.4-0.023 1.1 0.03 2.5 0.15 4 0.35 2.9 0.4 8 0.93 11 1.2 2.8 0.21 4.3 0.35 5.4 0.83 1.2 0.48 2 1.3 3.3 2.8 3.2 3.6 8.9 5.5 13 4.3 0.78-0.22 1.4-0.43 1.8-0.62 0.099-0.045 0.15-0.08 0.22-0.12-0.31 5e-3 -0.69 0.03-1.3 0.15-1.3 0.25-3.9 0.031-6-0.45-3-0.7-4.5-1.7-7.1-4.7-2.1-2.5-3.8-3.6-4.9-3.6-0.61-0.02-2.2-0.27-4.4-0.65s-5-0.91-7.9-1.5l-10-2.1a0.31 0.31 0 0 1-0.25-0.27l-0.26-2.3c-0.062-0.55-0.41-1.5-0.92-2.5-0.51-0.98-1.2-2-1.9-2.9-1.5-1.8-3.3-4.9-4.2-6.9-0.53-1.2-0.91-2-1.2-2.5s-0.54-0.57-0.94-0.57z" fill="#8bffff" stroke-width="1.5"/><path d="m399 242c0.73 0.065 2.4-0.51 3.7-1.3l2.4-1.4-0.49-7.3 2.9-1.7c1.6-0.94 2.9-1.8 2.9-1.9-0.02-0.13-1-1.7-2.2-3.5-1.2-1.8-2.2-3.5-2.2-3.8-4e-3 -0.29 1.3-1.2 2.8-2.1 1.5-0.84 2.9-1.6 3.1-1.8 0.14-0.14 0.39-1.5 0.57-2.9 0.23-2 0.84-3.5 2.3-5.7 2.2-3.4 2-3.3 6.6-2.5 2.8 0.52 3 0.48 4-0.85 3.6-5 2.9-4.7 7.2-4.4 2.2 0.12 4 0.12 4.1-1e-5 0.28-0.28-0.84-6.4-1.6-8.6-0.9-2.7-1.3-2.8-3.7-0.93-1.6 1.3-2.5 1.7-3.8 1.6-5.7-0.44-5.7-0.42-7.6 2.1-0.96 1.3-2.2 3.2-2.7 4.2-0.96 1.8-1 1.9-2.7 1.7-0.97-0.12-5.1-0.12-9.1 0.016-6.2 0.21-7.8 0.46-11 1.7-3.1 1.4-11 3.7-11 3.3-0.091-0.089 1.4-0.65 3.4-1.2 2-0.59 5.2-1.9 7.2-2.8 3.4-1.6 4.2-1.8 13-2.1l8.9-0.37 0.93-2.4c0.6-1.6 1.6-3.2 2.9-4.5 2-2 2-2 5.4-1.8 3.3 0.2 3.6 0.12 5.7-1.7l2.3-1.9-0.18-3.7c-0.18-3.5-0.1-3.8 1.8-6.5l2-2.8 5.9-1.7c4.9-1.4 6.2-2 7.9-3.4 1.5-1.3 2-2 1.9-2.8-0.16-1.5-1.7-2-6-1.9-3.2 0.063-4.9 0.48-9.2 2.2l-5.3 2.2-0.88 2.4c-1.3 3.5-1.9 3.3-0.88-0.36 0.87-3.1 0.9-3.2 2.7-3.9 1-0.42 2.6-1.1 3.5-1.6l1.6-0.79-7.2-6.7 3 2.1c4 2.8 6.2 3.5 8 2.8 0.8-0.33 3.4-0.7 5.7-0.83l4.3-0.24 1.2-2.3c1.8-3.3 29-15 30-14 1.2 0.9-25 12-27 14-0.49 0.76-0.8 2.6-0.76 4.6 0.065 3.4 0.058 3.4-2.1 5.6-1.7 1.7-2.8 2.4-4.6 3l-2.4 0.76 0.062 1.9c0.034 1 0.7 3.1 1.5 4.5 2.3 4.3 3.2 7 3.1 9.1-0.08 1.1-0.05 2.1 0.067 2.2 0.12 0.11 0.95-0.11 1.9-0.49 1.5-0.64 6.7-0.6 7.4 0.047 0.15 0.15 0.34 1.8 0.41 3.7 0.099 2.5 0.52 4.1 1.5 5.9 1.6 2.9 3.1 8.1 3 11-0.059 1.7-0.076 1.6-0.59-0.85-0.72-3.5-2.1-7.4-3.2-9l-0.88-1.3-5.6 6.5-6e-3 3.9c-7e-3 5-0.51 4.6-0.69-0.61-0.13-3.7-0.029-4.1 1.3-5.5 3-3.1 3.9-5.3 3.7-8.9l-0.19-3.3-1.7-0.27c-1-0.16-3 0.25-5 1-1.8 0.7-3.3 1.3-3.5 1.3-0.12 6e-3 -0.17-1.4-0.12-3.1 0.098-3.3-0.79-6-3.3-9.9-0.85-1.3-1.6-3.3-1.7-4.4-0.1-1.1-0.4-2-0.65-2s-1.5 0.19-2.8 0.55c-2.2 0.6-2.5 0.83-3.8 2.8-1.9 2.8-1.9 6.1-0.25 11 1.3 3.7 3 12 2.5 13-0.15 0.16-1.9 0.25-3.9 0.18l-3.6-0.12-0.22 3.3c-0.12 1.8-0.61 4.8-1.1 6.7l-0.87 3.5-2.3 1.2c-4 2.1-4.6 3-3.8 6.1 0.38 1.6 0.4 3.9 0.03 5.9-0.33 1.8-0.49 4.5-0.36 5.9 0.14 1.4 0.2 3.7 0.14 5l-0.1 2.4-2 0.64c-1.1 0.35-1.9 0.51-1.7 0.35 0.14-0.16 0.92-0.51 1.7-0.78l1.5-0.49-0.23-5.1c-0.13-2.8-0.045-6.5 0.19-8.3 0.23-1.8 0.14-4.4-0.21-5.9-0.6-2.5-0.56-2.7 0.92-4.2 0.85-0.87 2.4-2.1 3.4-2.7 1.8-1.1 1.9-1.2 2.6-5.4 0.4-2.3 0.69-5.2 0.63-6.4l-0.092-2.1-1.3 1.8c-0.71 0.98-1.7 2.3-2.1 3-0.77 1.1-1.1 1.2-4.6 0.53-4-0.73-4.1-0.72-6.4 2.6-0.87 1.2-1.4 2.8-1.5 4.7l-0.25 2.8-2.6 1.5c-1.4 0.85-2.7 1.7-2.9 1.9-0.17 0.18 0.57 1.8 1.7 3.5 1.1 1.8 2 3.5 2.1 3.8 0.1 0.4-0.86 1.1-3 2.3l-3.2 1.7 0.17 2.2c0.094 1.2 0.24 2.8 0.31 3.6l0.14 1.4-2.9 1.6c-2.7 1.4-4.4 1.8-5.2 1-0.18-0.17 0.28-0.26 1-0.19z" fill="#afa" filter="url(#a)"/><g><g><path d="m399 242c0.73 0.065 2.4-0.51 3.7-1.3l2.4-1.4-0.49-7.3 2.9-1.7c1.6-0.94 2.9-1.8 2.9-1.9-0.02-0.13-1-1.7-2.2-3.5-1.2-1.8-2.2-3.5-2.2-3.8-4e-3 -0.29 1.3-1.2 2.8-2.1 1.5-0.84 2.9-1.6 3.1-1.8 0.14-0.14 0.39-1.5 0.57-2.9 0.23-2 0.84-3.5 2.3-5.7 2.2-3.4 2-3.3 6.6-2.5 2.8 0.52 3 0.48 4-0.85 3.6-5 2.9-4.7 7.2-4.4 2.2 0.12 4 0.12 4.1-1e-5 0.28-0.28-0.84-6.4-1.6-8.6-0.9-2.7-1.3-2.8-3.7-0.93-1.6 1.3-2.5 1.7-3.8 1.6-5.7-0.44-5.7-0.42-7.6 2.1-0.96 1.3-2.2 3.2-2.7 4.2-0.96 1.8-1 1.9-2.7 1.7-0.97-0.12-5.1-0.12-9.1 0.016-6.2 0.21-7.8 0.46-11 1.7-3.1 1.4-11 3.7-11 3.3-0.091-0.089 1.4-0.65 3.4-1.2 2-0.59 5.2-1.9 7.2-2.8 3.4-1.6 4.2-1.8 13-2.1l8.9-0.37 0.93-2.4c0.6-1.6 1.6-3.2 2.9-4.5 2-2 2-2 5.4-1.8 3.3 0.2 3.6 0.12 5.7-1.7l2.3-1.9-0.18-3.7c-0.18-3.5-0.1-3.8 1.8-6.5l2-2.8 5.9-1.7c4.9-1.4 6.2-2 7.9-3.4 1.5-1.3 2-2 1.9-2.8-0.16-1.5-1.7-2-6-1.9-3.2 0.063-4.9 0.48-9.2 2.2l-5.3 2.2-0.88 2.4c-1.3 3.5-1.9 3.3-0.88-0.36 0.87-3.1 0.9-3.2 2.7-3.9 1-0.42 2.6-1.1 3.5-1.6l1.6-0.79-7.2-6.7 3 2.1c4 2.8 6.2 3.5 8 2.8 0.8-0.33 3.4-0.7 5.7-0.83l4.3-0.24 1.2-2.3c1.8-3.3 29-15 30-14 1.2 0.9-25 12-27 14-0.49 0.76-0.8 2.6-0.76 4.6 0.065 3.4 0.058 3.4-2.1 5.6-1.7 1.7-2.8 2.4-4.6 3l-2.4 0.76 0.062 1.9c0.034 1 0.7 3.1 1.5 4.5 2.3 4.3 3.2 7 3.1 9.1-0.08 1.1-0.05 2.1 0.067 2.2 0.12 0.11 0.95-0.11 1.9-0.49 1.5-0.64 6.7-0.6 7.4 0.047 0.15 0.15 0.34 1.8 0.41 3.7 0.099 2.5 0.52 4.1 1.5 5.9 1.6 2.9 3.1 8.1 3 11-0.059 1.7-0.076 1.6-0.59-0.85-0.72-3.5-2.1-7.4-3.2-9l-0.88-1.3-5.6 6.5-6e-3 3.9c-7e-3 5-0.51 4.6-0.69-0.61-0.13-3.7-0.029-4.1 1.3-5.5 3-3.1 3.9-5.3 3.7-8.9l-0.19-3.3-1.7-0.27c-1-0.16-3 0.25-5 1-1.8 0.7-3.3 1.3-3.5 1.3-0.12 6e-3 -0.17-1.4-0.12-3.1 0.098-3.3-0.79-6-3.3-9.9-0.85-1.3-1.6-3.3-1.7-4.4-0.1-1.1-0.4-2-0.65-2s-1.5 0.19-2.8 0.55c-2.2 0.6-2.5 0.83-3.8 2.8-1.9 2.8-1.9 6.1-0.25 11 1.3 3.7 3 12 2.5 13-0.15 0.16-1.9 0.25-3.9 0.18l-3.6-0.12-0.22 3.3c-0.12 1.8-0.61 4.8-1.1 6.7l-0.87 3.5-2.3 1.2c-4 2.1-4.6 3-3.8 6.1 0.38 1.6 0.4 3.9 0.03 5.9-0.33 1.8-0.49 4.5-0.36 5.9 0.14 1.4 0.2 3.7 0.14 5l-0.1 2.4-2 0.64c-1.1 0.35-1.9 0.51-1.7 0.35 0.14-0.16 0.92-0.51 1.7-0.78l1.5-0.49-0.23-5.1c-0.13-2.8-0.045-6.5 0.19-8.3 0.23-1.8 0.14-4.4-0.21-5.9-0.6-2.5-0.56-2.7 0.92-4.2 0.85-0.87 2.4-2.1 3.4-2.7 1.8-1.1 1.9-1.2 2.6-5.4 0.4-2.3 0.69-5.2 0.63-6.4l-0.092-2.1-1.3 1.8c-0.71 0.98-1.7 2.3-2.1 3-0.77 1.1-1.1 1.2-4.6 0.53-4-0.73-4.1-0.72-6.4 2.6-0.87 1.2-1.4 2.8-1.5 4.7l-0.25 2.8-2.6 1.5c-1.4 0.85-2.7 1.7-2.9 1.9-0.17 0.18 0.57 1.8 1.7 3.5 1.1 1.8 2 3.5 2.1 3.8 0.1 0.4-0.86 1.1-3 2.3l-3.2 1.7 0.17 2.2c0.094 1.2 0.24 2.8 0.31 3.6l0.14 1.4-2.9 1.6c-2.7 1.4-4.4 1.8-5.2 1-0.18-0.17 0.28-0.26 1-0.19z" fill="#daffda"/><path d="m43 264c-0.19-0.71-1.2-2.2-2.1-3.3-1.5-1.7-1.9-2.5-2.4-5-0.72-3.6-3.3-7.5-4.8-7.3-0.5 0.088-1.7 0.011-2.6-0.17-2.4-0.47-3.6-3.2-3.9-9l-0.26-4.6-5.8-2.2c-3.2-1.2-6.1-2.3-6.5-2.5-0.43-0.16-2.4-0.57-4.4-0.9-3-0.5-3.7-0.43-4.3 0.41-0.36 0.56-0.39 1.2-0.058 1.5 1.6 1.4 3.7 4 5.9 7.3l2.4 3.7-1.2 1.8c-0.64 1-1.1 1.9-1 2 0.07 0.13 2 1.5 4.2 3.1l4.1 2.9 1.6 4.7c0.93 2.7 2.4 5.9 3.5 7.5l1.8 2.8-2-2.3c-1.4-1.7-2.5-3.6-3.9-7.1l-1.9-4.8-3.5-2.4c-5.3-3.5-5.4-3.5-5.9-0.1-0.2 1.6-0.39 3.2-0.41 3.6-0.024 0.37-0.78 1.9-1.7 3.3-0.9 1.5-1.7 2.8-1.7 2.9-0.049 0.12 0.89 1.2 2.1 2.4 1.2 1.2 2.3 2.4 2.4 2.6 0.15 0.31-5.3-4.1-5.5-4.6-0.03-0.044 0.77-1.5 1.8-3.3 1.3-2.2 1.9-4.2 2-6.3 0.12-2.1 0.71-4 2-6l1.8-2.9-2.4-3.5c-1.3-1.9-3.3-4.3-4.3-5.2-1-0.94-2-2-2.2-2.3-0.17-0.31 1.1-2.4 2.7-4.6l3.1-4-1.3-2.1c-1.3-2-1.4-2.1-5.7-2.3-2.4-0.12-4.7-0.17-5-0.12-0.36 0.052-0.69-2.4-0.78-5.8l-0.16-5.9-3.6-0.88c-2.7-0.67-4.5-1.6-7.2-3.7-4.1-3.2-3.9-2.4-1.3-7.8l1.3-2.6-4.2-6.1 2.3-3.8c2-3.3 3-6.6 3.1-9.5 0.024-0.99-2.6-2.3-8.2-4.1l-4.4-1.4-0.31-8.5-1.5-0.16c-0.8-0.087-1.6-0.08-1.8 0.015-0.49 0.27-3.4 11-3.9 15-0.84 5.6-0.52 6.9 3.2 14l3.4 6.1-2.4 2.3c-1.3 1.3-2.3 2.6-2.3 3 0.071 0.39 1.3 1.4 2.8 2.2 1.5 0.83 3.8 2.8 5.2 4.3 1.9 2.1 3.4 3.2 6.2 4.4l3.8 1.6-0.31 4.1c-0.17 2.3-0.47 4.5-0.67 5-0.53 1.3 0.21 2.3 2.7 3.6 1.2 0.61 2.1 1.2 1.9 1.2-0.13 0.07-1.4-0.48-2.9-1.2l-2.7-1.3 0.53-3.5c0.29-1.9 0.49-4.4 0.46-5.5l-0.068-2-3.5-1.3c-2.5-0.95-4.1-2-6-3.9-2.5-2.6-7.4-5.8-8.2-5.3-0.23 0.12-0.53 1.2-0.67 2.3-0.14 1.1-1.1 3.6-2 5.4-1.9 3.6-2.7 7.3-2.6 12 0.051 3.1-0.38 3.3-0.7 0.32-0.43-3.8 0.54-9.7 2.1-12 0.86-1.6 1.9-4.8 2.4-7.1 0.68-3.6 1.1-4.5 2.9-6.2 1.1-1.1 2-2.1 2-2.3-0.074-0.18-0.28-0.81-0.46-1.4-0.18-0.58-1.6-2.9-3.2-5.1l-2.9-4-0.23-4.5c-0.21-4.2 0.17-7 2.2-16l0.88-3.9-1.9-1.9c-2.6-2.6-3.4-4.2-3.7-7.8-0.28-3.1 0.23-4 2.2-3.9 0.75 0.047 0.98 0.62 1.4 3.6 0.69 4.8 2.2 6.2 7.7 7.6l4.1 0.98-0.036 1.9c-0.044 2.4 0.26 2.4 5.6 0.79 4.3-1.3 12-2.1 12-1.2 0.8 1.4 1.6 6.8 1.3 9.2-0.4 4 1.4 7.1 4.5 8 1.2 0.32 3.8 1.4 5.7 2.4 1.9 0.99 4.5 2.2 5.8 2.6 2.3 0.78 2.3 0.79 0.61 0.68-0.96-0.062-3.6-0.94-5.9-2-2.3-1-5.2-2.2-6.6-2.5-1.9-0.54-2.8-1.2-4.1-2.9-1.5-2-1.7-2.7-1.8-6.5-0.31-6.8-0.51-7.2-4.1-7.1-1.7 0.055-3.7 0.48-4.6 0.95-0.86 0.47-3 1.2-4.8 1.7-1.8 0.48-3.5 1-3.8 1.2-1 0.51-0.024 1.5 2 2 2.3 0.58 10 4.3 10 5 0.14 0.28-0.073 2.4-0.48 4.8-0.54 3.1-1.3 5.1-2.8 7.2-1.1 1.6-1.9 3.2-1.8 3.5 0.63 1.1 5.8 2.9 9.9 3.4 2.4 0.27 5.2 0.78 6.2 1.1 1.8 0.62 1.9 0.7 4.2 5.8 2.2 4.9 2.5 5.3 4.6 6.8 1.7 1.2 3.2 1.7 5.7 1.8 1.9 0.11 3.5 0.41 3.6 0.68 0.4 0.76-0.082 8.8-0.48 8.1-0.2-0.36-0.33-2.1-0.3-4l0.058-3.3-2.8-0.35c-1.5-0.19-2.9-0.28-3.1-0.19-0.16 0.086-1.5-0.6-3-1.5-2.5-1.6-2.8-2-5.4-6.9l-2.8-5.2-3.5-0.6c-2-0.33-4.6-0.56-5.9-0.52-1.3 0.039-2.6-0.17-3-0.47-0.84-0.71-1.6-0.28-1.1 0.62 0.21 0.38-0.31 2.2-1.2 4.1-1.7 3.8-1.7 3.8 2.5 6.7 1.3 0.87 3.9 2 6 2.4l3.7 0.86-0.12 5.6c-0.065 3.1 0.09 5.7 0.35 5.9 0.34 0.19 6.3 0.62 8.5 0.62 0.059-4.4e-4 0.98 1.2 2 2.7l1.9 2.7-1.4 2.1c-0.77 1.1-1.3 2.3-1.2 2.5 0.12 0.22 1.3 0.56 2.5 0.75 2 0.29 14 4.9 16 6.1 0.42 0.25 0.75 2.3 0.81 5.2 0.073 3.3 0.44 5.4 1.1 6.7 0.92 1.7 1.3 1.9 3.7 2.1l2.7 0.22 1.8 4c0.99 2.2 2.8 5.9 4 8.2 1.2 2.3 2.1 4.5 2 4.8-0.11 0.33-0.35 0.014-0.54-0.7z" fill="#ffa161" filter="url(#c)"/><path d="m43 264c-0.19-0.71-1.2-2.2-2.1-3.3-1.5-1.7-1.9-2.5-2.4-5-0.72-3.6-3.3-7.5-4.8-7.3-0.5 0.088-1.7 0.011-2.6-0.17-2.4-0.47-3.6-3.2-3.9-9l-0.26-4.6-5.8-2.2c-3.2-1.2-6.1-2.3-6.5-2.5-0.43-0.16-2.4-0.57-4.4-0.9-3-0.5-3.7-0.43-4.3 0.41-0.36 0.56-0.39 1.2-0.058 1.5 1.6 1.4 3.7 4 5.9 7.3l2.4 3.7-1.2 1.8c-0.64 1-1.1 1.9-1 2 0.07 0.13 2 1.5 4.2 3.1l4.1 2.9 1.6 4.7c0.93 2.7 2.4 5.9 3.5 7.5l1.8 2.8-2-2.3c-1.4-1.7-2.5-3.6-3.9-7.1l-1.9-4.8-3.5-2.4c-5.3-3.5-5.4-3.5-5.9-0.1-0.2 1.6-0.39 3.2-0.41 3.6-0.024 0.37-0.78 1.9-1.7 3.3-0.9 1.5-1.7 2.8-1.7 2.9-0.049 0.12 0.89 1.2 2.1 2.4 1.2 1.2 2.3 2.4 2.4 2.6 0.15 0.31-5.3-4.1-5.5-4.6-0.03-0.044 0.77-1.5 1.8-3.3 1.3-2.2 1.9-4.2 2-6.3 0.12-2.1 0.71-4 2-6l1.8-2.9-2.4-3.5c-1.3-1.9-3.3-4.3-4.3-5.2-1-0.94-2-2-2.2-2.3-0.17-0.31 1.1-2.4 2.7-4.6l3.1-4-1.3-2.1c-1.3-2-1.4-2.1-5.7-2.3-2.4-0.12-4.7-0.17-5-0.12-0.36 0.052-0.69-2.4-0.78-5.8l-0.16-5.9-3.6-0.88c-2.7-0.67-4.5-1.6-7.2-3.7-4.1-3.2-3.9-2.4-1.3-7.8l1.3-2.6-4.2-6.1 2.3-3.8c2-3.3 3-6.6 3.1-9.5 0.024-0.99-2.6-2.3-8.2-4.1l-4.4-1.4-0.31-8.5-1.5-0.16c-0.8-0.087-1.6-0.08-1.8 0.015-0.49 0.27-3.4 11-3.9 15-0.84 5.6-0.52 6.9 3.2 14l3.4 6.1-2.4 2.3c-1.3 1.3-2.3 2.6-2.3 3 0.071 0.39 1.3 1.4 2.8 2.2 1.5 0.83 3.8 2.8 5.2 4.3 1.9 2.1 3.4 3.2 6.2 4.4l3.8 1.6-0.31 4.1c-0.17 2.3-0.47 4.5-0.67 5-0.53 1.3 0.21 2.3 2.7 3.6 1.2 0.61 2.1 1.2 1.9 1.2-0.13 0.07-1.4-0.48-2.9-1.2l-2.7-1.3 0.53-3.5c0.29-1.9 0.49-4.4 0.46-5.5l-0.068-2-3.5-1.3c-2.5-0.95-4.1-2-6-3.9-2.5-2.6-7.4-5.8-8.2-5.3-0.23 0.12-0.53 1.2-0.67 2.3-0.14 1.1-1.1 3.6-2 5.4-1.9 3.6-2.7 7.3-2.6 12 0.051 3.1-0.38 3.3-0.7 0.32-0.43-3.8 0.54-9.7 2.1-12 0.86-1.6 1.9-4.8 2.4-7.1 0.68-3.6 1.1-4.5 2.9-6.2 1.1-1.1 2-2.1 2-2.3-0.074-0.18-0.28-0.81-0.46-1.4-0.18-0.58-1.6-2.9-3.2-5.1l-2.9-4-0.23-4.5c-0.21-4.2 0.17-7 2.2-16l0.88-3.9-1.9-1.9c-2.6-2.6-3.4-4.2-3.7-7.8-0.28-3.1 0.23-4 2.2-3.9 0.75 0.047 0.98 0.62 1.4 3.6 0.69 4.8 2.2 6.2 7.7 7.6l4.1 0.98-0.036 1.9c-0.044 2.4 0.26 2.4 5.6 0.79 4.3-1.3 12-2.1 12-1.2 0.8 1.4 1.6 6.8 1.3 9.2-0.4 4 1.4 7.1 4.5 8 1.2 0.32 3.8 1.4 5.7 2.4 1.9 0.99 4.5 2.2 5.8 2.6 2.3 0.78 2.3 0.79 0.61 0.68-0.96-0.062-3.6-0.94-5.9-2-2.3-1-5.2-2.2-6.6-2.5-1.9-0.54-2.8-1.2-4.1-2.9-1.5-2-1.7-2.7-1.8-6.5-0.31-6.8-0.51-7.2-4.1-7.1-1.7 0.055-3.7 0.48-4.6 0.95-0.86 0.47-3 1.2-4.8 1.7-1.8 0.48-3.5 1-3.8 1.2-1 0.51-0.024 1.5 2 2 2.3 0.58 10 4.3 10 5 0.14 0.28-0.073 2.4-0.48 4.8-0.54 3.1-1.3 5.1-2.8 7.2-1.1 1.6-1.9 3.2-1.8 3.5 0.63 1.1 5.8 2.9 9.9 3.4 2.4 0.27 5.2 0.78 6.2 1.1 1.8 0.62 1.9 0.7 4.2 5.8 2.2 4.9 2.5 5.3 4.6 6.8 1.7 1.2 3.2 1.7 5.7 1.8 1.9 0.11 3.5 0.41 3.6 0.68 0.4 0.76-0.082 8.8-0.48 8.1-0.2-0.36-0.33-2.1-0.3-4l0.058-3.3-2.8-0.35c-1.5-0.19-2.9-0.28-3.1-0.19-0.16 0.086-1.5-0.6-3-1.5-2.5-1.6-2.8-2-5.4-6.9l-2.8-5.2-3.5-0.6c-2-0.33-4.6-0.56-5.9-0.52-1.3 0.039-2.6-0.17-3-0.47-0.84-0.71-1.6-0.28-1.1 0.62 0.21 0.38-0.31 2.2-1.2 4.1-1.7 3.8-1.7 3.8 2.5 6.7 1.3 0.87 3.9 2 6 2.4l3.7 0.86-0.12 5.6c-0.065 3.1 0.09 5.7 0.35 5.9 0.34 0.19 6.3 0.62 8.5 0.62 0.059-4.4e-4 0.98 1.2 2 2.7l1.9 2.7-1.4 2.1c-0.77 1.1-1.3 2.3-1.2 2.5 0.12 0.22 1.3 0.56 2.5 0.75 2 0.29 14 4.9 16 6.1 0.42 0.25 0.75 2.3 0.81 5.2 0.073 3.3 0.44 5.4 1.1 6.7 0.92 1.7 1.3 1.9 3.7 2.1l2.7 0.22 1.8 4c0.99 2.2 2.8 5.9 4 8.2 1.2 2.3 2.1 4.5 2 4.8-0.11 0.33-0.35 0.014-0.54-0.7z" fill="#fff4ec"/></g><path d="m195 349c-0.038-1.4 0.3-5 0.76-8 0.75-5 0.75-5.8-0.055-8.6-0.7-2.5-1.5-3.8-4.1-6.4l-3.2-3.3 2-3.6c1.7-3 2.5-3.8 4.7-5 3.6-1.8 5.1-3.4 5.6-5.9 0.36-1.9 0.23-2.2-3-5.4-3.2-3.2-3.3-3.5-3.2-5.8 0.12-2.5-0.39-4.8-1.1-4.8-0.23 0-0.96 1.2-1.6 2.6-0.84 1.8-2 3.1-3.8 4.4-2.6 1.8-2.6 1.8-3 5.5-0.2 2-0.2 5.2 3e-3 7 0.35 3.1 0.24 3.5-2 8.1-1.3 2.7-2.4 4.8-2.6 4.7-0.13-0.13 0.64-2.3 1.7-4.7l1.9-4.5-0.65-15 2.6-1.8c2-1.4 2.9-2.6 4.2-5.4 1.4-3.1 1.6-4 1.4-7.4-0.18-3.7-0.31-4-2.5-6.5-2.3-2.6-2.3-2.7-2-5.4 0.19-1.5 0.69-4.4 1.1-6.5 0.89-4.4 0.96-6 0.27-6.5-0.39-0.24-7.2 2.9-8 3.7-0.11 0.11 0.51 1.9 1.4 3.9 0.87 2 1.8 5.2 2 6.9 0.21 1.8 0.49 3.6 0.63 4.1 0.34 1.2-5 3.5-9.1 4-3.4 0.41-3.4 0.29-2.3 4.8 0.74 3.1 0.72 3.2-0.83 6.3-0.87 1.8-1.6 4-1.6 5-0.032 1.7-0.061 1.7-0.55 0.49-0.4-1-0.19-2.1 0.93-5l1.4-3.7-0.91-4.1c-0.5-2.3-0.81-4.2-0.68-4.4 0.12-0.12 1.7-0.37 3.4-0.54 2.7-0.26 8.3-2.4 8.3-3.1 0-2-2-8.6-3.5-12-1.1-2.1-1.9-4-1.8-4 1.7-1.2 7.6-4.6 7.9-4.6 1 0 2.2-1.9 1.7-2.7-0.28-0.44-0.51-0.98-0.51-1.2-4e-3 -0.22 1.9-1.4 4.3-2.6 2.4-1.2 4.3-2.4 4.3-2.7 0-0.29-0.46-1.7-1-3.2l-1-2.7 3.7-5.5-0.83-2.8c-0.89-3-0.73-3.5 1.3-3.8 1.2-0.17 1.4 0.15 2.3 3.5l1 3.6-1.9 2.6c-1 1.4-1.9 2.8-1.9 3.1 0 0.26 1.4 3.3 3.1 6.7 3 6 3.1 6.4 3 10-0.077 3.1-0.43 4.7-1.8 7.5-0.91 2-1.7 3.6-1.7 3.7 0 0.087 1.2 0.32 2.6 0.52 1.8 0.24 3.3 0.9 4.6 2l2 1.6-0.16 8.3c-0.11 5.6-0.32 7.9-0.65 7.1-0.27-0.65-0.43-3.4-0.36-6.2 0.22-8.7-0.7-11-5.2-11-1.1-0.14-2.8-0.38-3.7-0.52l-1.7-0.26 1.7-3.9c0.91-2.1 1.8-5.3 2.1-7.1 0.38-2.9 0.28-3.5-1.1-6.3-0.86-1.7-1.8-3.2-2.1-3.4-0.66-0.41-7.1 2.4-7.1 3.1 0 0.29 0.42 1.7 0.93 3.1 0.89 2.5 0.88 2.8-0.27 8.5-0.66 3.2-1.2 6.3-1.2 6.9 6e-3 0.59 0.98 2.3 2.2 3.8 2 2.5 2.2 3 2.2 6.1 4e-3 2.4 0.39 4.2 1.4 6.4 0.87 2 1.4 4 1.4 5.8 0 2.6 0.13 2.9 3.2 6l3.2 3.3-1.7 5 3.3 4.7c1.8 2.6 3.4 5 3.6 5.3 0.14 0.36-0.49 2.7-1.4 5.1-1.8 5-1.7 6.4 0.85 11 0.71 1.4 1.3 3 1.2 3.5-0.046 0.83-0.1 0.81-0.41-0.12-0.2-0.59-0.92-2.1-1.6-3.4-0.69-1.3-1.6-3.4-2-4.7-0.64-2.1-0.59-2.7 0.59-6.4 0.71-2.2 1.3-4.3 1.3-4.6 0-0.47-1.5-2.5-5.8-8-0.61-0.77-1-0.68-4.2 0.87-3.1 1.5-3.7 2.1-4.9 4.7l-1.4 2.9 2.7 3.2c4.4 5.1 5.3 9.6 3.3 17-0.3 1.2-0.74 3.6-0.98 5.4-0.41 3.2-0.43 3.2-0.5 0.83z" fill="#d324ff" filter="url(#b)"/><path d="m195 349c-0.038-1.4 0.3-5 0.76-8 0.75-5 0.75-5.8-0.055-8.6-0.7-2.5-1.5-3.8-4.1-6.4l-3.2-3.3 2-3.6c1.7-3 2.5-3.8 4.7-5 3.6-1.8 5.1-3.4 5.6-5.9 0.36-1.9 0.23-2.2-3-5.4-3.2-3.2-3.3-3.5-3.2-5.8 0.12-2.5-0.39-4.8-1.1-4.8-0.23 0-0.96 1.2-1.6 2.6-0.84 1.8-2 3.1-3.8 4.4-2.6 1.8-2.6 1.8-3 5.5-0.2 2-0.2 5.2 3e-3 7 0.35 3.1 0.24 3.5-2 8.1-1.3 2.7-2.4 4.8-2.6 4.7-0.13-0.13 0.64-2.3 1.7-4.7l1.9-4.5-0.65-15 2.6-1.8c2-1.4 2.9-2.6 4.2-5.4 1.4-3.1 1.6-4 1.4-7.4-0.18-3.7-0.31-4-2.5-6.5-2.3-2.6-2.3-2.7-2-5.4 0.19-1.5 0.69-4.4 1.1-6.5 0.89-4.4 0.96-6 0.27-6.5-0.39-0.24-7.2 2.9-8 3.7-0.11 0.11 0.51 1.9 1.4 3.9 0.87 2 1.8 5.2 2 6.9 0.21 1.8 0.49 3.6 0.63 4.1 0.34 1.2-5 3.5-9.1 4-3.4 0.41-3.4 0.29-2.3 4.8 0.74 3.1 0.72 3.2-0.83 6.3-0.87 1.8-1.6 4-1.6 5-0.032 1.7-0.061 1.7-0.55 0.49-0.4-1-0.19-2.1 0.93-5l1.4-3.7-0.91-4.1c-0.5-2.3-0.81-4.2-0.68-4.4 0.12-0.12 1.7-0.37 3.4-0.54 2.7-0.26 8.3-2.4 8.3-3.1 0-2-2-8.6-3.5-12-1.1-2.1-1.9-4-1.8-4 1.7-1.2 7.6-4.6 7.9-4.6 1 0 2.2-1.9 1.7-2.7-0.28-0.44-0.51-0.98-0.51-1.2-4e-3 -0.22 1.9-1.4 4.3-2.6 2.4-1.2 4.3-2.4 4.3-2.7 0-0.29-0.46-1.7-1-3.2l-1-2.7 3.7-5.5-0.83-2.8c-0.89-3-0.73-3.5 1.3-3.8 1.2-0.17 1.4 0.15 2.3 3.5l1 3.6-1.9 2.6c-1 1.4-1.9 2.8-1.9 3.1 0 0.26 1.4 3.3 3.1 6.7 3 6 3.1 6.4 3 10-0.077 3.1-0.43 4.7-1.8 7.5-0.91 2-1.7 3.6-1.7 3.7 0 0.087 1.2 0.32 2.6 0.52 1.8 0.24 3.3 0.9 4.6 2l2 1.6-0.16 8.3c-0.11 5.6-0.32 7.9-0.65 7.1-0.27-0.65-0.43-3.4-0.36-6.2 0.22-8.7-0.7-11-5.2-11-1.1-0.14-2.8-0.38-3.7-0.52l-1.7-0.26 1.7-3.9c0.91-2.1 1.8-5.3 2.1-7.1 0.38-2.9 0.28-3.5-1.1-6.3-0.86-1.7-1.8-3.2-2.1-3.4-0.66-0.41-7.1 2.4-7.1 3.1 0 0.29 0.42 1.7 0.93 3.1 0.89 2.5 0.88 2.8-0.27 8.5-0.66 3.2-1.2 6.3-1.2 6.9 6e-3 0.59 0.98 2.3 2.2 3.8 2 2.5 2.2 3 2.2 6.1 4e-3 2.4 0.39 4.2 1.4 6.4 0.87 2 1.4 4 1.4 5.8 0 2.6 0.13 2.9 3.2 6l3.2 3.3-1.7 5 3.3 4.7c1.8 2.6 3.4 5 3.6 5.3 0.14 0.36-0.49 2.7-1.4 5.1-1.8 5-1.7 6.4 0.85 11 0.71 1.4 1.3 3 1.2 3.5-0.046 0.83-0.1 0.81-0.41-0.12-0.2-0.59-0.92-2.1-1.6-3.4-0.69-1.3-1.6-3.4-2-4.7-0.64-2.1-0.59-2.7 0.59-6.4 0.71-2.2 1.3-4.3 1.3-4.6 0-0.47-1.5-2.5-5.8-8-0.61-0.77-1-0.68-4.2 0.87-3.1 1.5-3.7 2.1-4.9 4.7l-1.4 2.9 2.7 3.2c4.4 5.1 5.3 9.6 3.3 17-0.3 1.2-0.74 3.6-0.98 5.4-0.41 3.2-0.43 3.2-0.5 0.83z" fill="#f7d5ff"/></g></g></svg>
