<?xml version="1.0" encoding="UTF-8" standalone="no"?>
<svg
   xmlns:dc="http://purl.org/dc/elements/1.1/"
   xmlns:cc="http://creativecommons.org/ns#"
   xmlns:rdf="http://www.w3.org/1999/02/22-rdf-syntax-ns#"
   xmlns:svg="http://www.w3.org/2000/svg"
   xmlns="http://www.w3.org/2000/svg"
   xmlns:sodipodi="http://sodipodi.sourceforge.net/DTD/sodipodi-0.dtd"
   xmlns:inkscape="http://www.inkscape.org/namespaces/inkscape"
   width="497.06mm"
   height="939.326"
   viewBox="0 0 497.06 248.53"
   version="1.1"
   id="svg4"
   sodipodi:docname="background.svg"
   inkscape:version="1.0.2 (e86c870879, 2021-01-15, custom)">
  <metadata
     id="metadata10">
    <rdf:RDF>
      <cc:Work
         rdf:about="">
        <dc:format>image/svg+xml</dc:format>
        <dc:type
           rdf:resource="http://purl.org/dc/dcmitype/StillImage" />
      </cc:Work>
    </rdf:RDF>
  </metadata>
  <defs
     id="defs8" />
  <sodipodi:namedview
     pagecolor="#ffffff"
     bordercolor="#666666"
     borderopacity="1"
     objecttolerance="10"
     gridtolerance="10"
     guidetolerance="10"
     inkscape:pageopacity="0"
     inkscape:pageshadow="2"
     inkscape:window-width="1920"
     inkscape:window-height="986"
     id="namedview6"
     showgrid="false"
     inkscape:zoom="0.53635649"
     inkscape:cx="857.68711"
     inkscape:cy="520.03882"
     inkscape:window-x="-11"
     inkscape:window-y="-11"
     inkscape:window-maximized="1"
     inkscape:current-layer="svg4" />
  <path
     d="M447.617 9.738a1.543 1.543 0 10.011 3.087 1.543 1.543 0 00-.011-3.087zm4.514.53c3.02.727 5.29 3.842 5.29 7.575 0 1.685-.465 3.243-1.25 4.513l-.951-1.384a.36.36 0 01-.029-.358l.292-.616-2.643 2.09.555-.142a.398.398 0 01.395.12l1.402 1.556a6.584 6.584 0 01-1.902 1.384l-9.462-11.842-.144.217-.006-.006a9.165 9.165 0 006.979 15.103 9.138 9.138 0 003.564-.719l8.288 8.784-7.377-9.233a9.196 9.196 0 002.012-1.523l5.843 6.484-5.067-7.37a9.124 9.124 0 001.902-5.588c0-4.56-3.33-8.34-7.69-9.046zm-171.734.99l-3.853 3.824 1.856-.747a.235.235 0 01.255.052l1.173 1.189a9.95 9.95 0 00-2.88 7.005c0 5.01 3.71 9.162 8.56 9.914-3.261-.803-5.708-4.18-5.708-8.225 0-2.497.933-4.739 2.412-6.279l1.14 1.156a5.6 5.6 0 00-1.999 4.287c0 2.577 1.747 4.748 4.13 5.416-1.509-.628-2.576-2.166-2.576-3.97 0-1.694.944-3.154 2.31-3.845l5.496 5.57c-.457 1.08-1.328 1.925-2.403 2.312a5.682 5.682 0 002.959-1.75l.868.88-.755-1.008a5.571 5.571 0 001.323-3.605c0-3.112-2.541-5.634-5.676-5.634-.791 0-1.544.162-2.229.452l-1.093-1.46a6.351 6.351 0 013.293-.931c3.976 0 7.198 3.763 7.198 8.409 0 4.155-2.58 7.604-5.971 8.285 5.065-.562 9.003-4.812 9.003-9.974 0-5.543-4.54-10.038-10.141-10.038-1.988 0-3.841.569-5.406 1.547l-1.405-1.875c.098-.266.123-.597.12-.956zM43.092 15.816c-5.365 0-9.716 4.349-9.716 9.715 0 2.108.673 4.058 1.814 5.65l-4.65 10.192 5.384-9.284a9.76 9.76 0 002.336 1.871l-4.465 9.28 5.432-8.793a9.677 9.677 0 003.865.802c5.366 0 9.717-4.35 9.717-9.716a9.67 9.67 0 00-2.05-5.966h-.001a8.04 8.04 0 011.289 4.375 8.081 8.081 0 01-10.988 7.539l2.579-4.175a2.46 2.46 0 01.717-.747l.402-.361c-1.15-.224-2.014-.63-3.375-1.331l.476.925c.108.21.11.458.008.67l-2.107 4.38a8.118 8.118 0 01-2.065-1.806l3.276-5.648c.104-.181.242-.34.407-.47.359-.276.829-.548 1.126-.664-.851-.03-3.274-1.325-3.704-1.628l.39.966c.11.285.102.602-.025.88l-2.37 5.192a8.08 8.08 0 017.172-11.802h.074a9.795 9.795 0 00-.948-.046zm4.608.001a1.598 1.598 0 100 3.196 1.598 1.598 0 000-3.196zm347.765.865l-7.792 5.591a9.56 9.56 0 00-8.008-2.256 8.34 8.34 0 017.228 2.816l-2.183 1.566a.688.688 0 01-.403.13l-1.078.044c.982.731 1.783 1.514 2.61 2.452L385.825 26a.506.506 0 01.16-.377l1.748-1.648a8.326 8.326 0 011.221 4.355c0 1.601-.45 3.097-1.23 4.368l-.716-.826a.671.671 0 01-.164-.438v-.946c-.707.714-1.579 1.417-2.54 2.114l1.058-.007a.71.71 0 01.475.18l1.112.985a8.344 8.344 0 01-5.618 2.9l-.006-1.429c0-.123.055-.24.151-.318l.595-.535a14.01 14.01 0 01-3.294 0l.588.716c.138.156.233.345.273.549l.203 1.016a8.337 8.337 0 01-5.175-2.424l7.117-6.577-7.89 5.684a8.328 8.328 0 01-1.667-5.012 8.32 8.32 0 011.173-4.274 9.553 9.553 0 00-1.674 5.414c0 1.663.424 3.227 1.168 4.591l-2.496 1.799a.693.693 0 01-.424.13l-1.075-.027a27.126 27.126 0 012.41 2.548l-.017-.925a.512.512 0 01.165-.385l2.166-2.002a9.588 9.588 0 006.688 3.816l1.052 5.282-.022-5.229a9.578 9.578 0 007.5-3.63l5.427 4.811-4.859-5.606a9.55 9.55 0 001.516-5.172 9.559 9.559 0 00-2.35-6.289l6.89-6.5zm48.698.42l7.868 8.34c-.407.09-.827.14-1.256.14-3.668 0-6.641-3.466-6.641-7.738 0-.247.009-.495.03-.742zm-68.216 3.147a1.573 1.573 0 100 3.146 1.573 1.573 0 000-3.146zm-88.966.36c2.253 0 4.078 1.912 4.078 4.272 0 .498-.083.975-.233 1.42l-4.248-5.67c.133-.014.267-.022.403-.022zm-.216 3.765a1.703 1.703 0 10.044 3.405 1.703 1.703 0 00-.044-3.405zM177.423 40.028l7.388 5.88a9.63 9.63 0 00-1.544 5.24c0 2.218.748 4.26 2.002 5.892l-7.528 8.856 8.45-7.817a9.678 9.678 0 0014.925-12.115 7.919 7.919 0 01.822 3.52c0 4.376-3.531 7.924-7.887 7.924a7.83 7.83 0 01-5.099-1.882l2.67-2.469c.29-.27.685-.398 1.078-.352l.913.107-2.41-2.448c.561-1.113 1.417-2.377 2.43-3.725l-1.732 1.286a.826.826 0 01-.91.05l-3.874-2.269a7.88 7.88 0 016.934-4.146c.083 0 .164.004.246.006a9.654 9.654 0 00-8.678 3.262zm20.774 2.428a1.688 1.688 0 10.02 3.376 1.688 1.688 0 00-.02-3.376zm-11.71 4.785l4.242 3.376-3.029 3.563a7.953 7.953 0 01-1.213-6.94zm-69.39 4.534c-1.392.022-2.068 1.71-1.077 2.687.992.976 2.67.274 2.67-1.118a1.569 1.569 0 00-1.594-1.569zm2.029 4.329c-1.222.375-2.908.427-4.73.388l1.414.717c.296.147.49.147.512.478l.064 1.021c-5.29.415-9.45 4.7-9.45 9.927 0 4.985 3.784 9.115 8.72 9.847-3.229-.84-5.643-4.186-5.643-8.19 0-4.379 2.889-7.973 6.575-8.357l.11 1.75c-2.978.262-5.311 2.705-5.311 5.681 0 2.524 1.677 4.663 4.001 5.418-1.31-.71-2.209-2.145-2.209-3.804 0-2.239 1.633-4.072 3.709-4.254l.52 8.284.593-8.222c1.865.381 3.274 2.112 3.274 4.192 0 1.66-.899 3.095-2.21 3.802 2.325-.753 4.002-2.892 4.002-5.417 0-2.819-2.094-5.159-4.846-5.62l.126-1.748c3.468.617 6.124 4.096 6.124 8.296 0 3.98-2.387 7.312-5.59 8.174 4.897-.767 8.637-4.876 8.637-9.832 0-5.058-3.894-9.232-8.937-9.874l.102-1.407c.014-.205.065-.405.148-.592l.295-.658zm316.278 16.79l-.194.333.159.583c.033.12.04.167-.02.292l-1.778 2.807a9.191 9.191 0 00-5.462-.32l-.107-2.74a1.439 1.439 0 01.095-.554l.108-.285-3.143.65.834.724c.182.187.437.544.502.796l.481 1.81a9.176 9.176 0 00-3.854 14.054 7.491 7.491 0 01-1.334-4.275c0-3.562 2.484-6.55 5.831-7.363l.814 3.058-.124-3.194a7.727 7.727 0 013.65.333l-1.335 2.107c.473.093 1.115.262 1.578.818l1.349-2.167a7.603 7.603 0 013.28 4.35l-3.685 1.428 3.843-.757c.084.45.13.913.13 1.387 0 4.189-3.432 7.584-7.666 7.584a7.702 7.702 0 01-3.239-.71 9.174 9.174 0 0013.36-8.771l1.513-.297a.319.319 0 01.29.091l1.306 1.315c-.319-1.76-.426-3.454-.359-4.078l-.377.66a.523.523 0 01-.27.27l-2.253.873a9.183 9.183 0 00-4.201-6.033l1.715-2.756c.157-.2.157-.2.439-.249l1.046-.176c-.729-.27-1.82-.913-2.922-1.599zM28.348 77.188l.898.597a.547.547 0 01.242.407l.13 1.458c-3.25.836-5.844 3.282-6.857 6.425l-2.523.015.149 3.469.704-.82c.139-.144.494-.314.693-.333l.54-.05a9.684 9.684 0 00-.025.66c0 5.09 3.975 9.26 9.023 9.647l.581 6.484-.021-6.456c.07.001.138.005.208.005 4.913 0 8.98-3.578 9.683-8.242-.713 3.192-4.143 5.613-8.212 5.613a9.99 9.99 0 01-1.689-.143l-.027-8.46 16.413-1.538-16.418.096-.012-3.702c.308-.039.622-.062.942-.062.801 0 1.57.023 2.283.24l.057.02c.558.176 1.146.382 1.646.659a.993.993 0 01.425.463l.402.898a2.184 2.184 0 011.111-.49l.442-1.748a9.814 9.814 0 00-7.046-2.962c-.091 0-.181.005-.272.007l-.004-1.222a.92.92 0 01.152-.51l.28-.425c-1.176.148-2.49.131-3.898 0zm1.555 5.642l.287 3.201-3.983.024a7.676 7.676 0 013.696-3.225zm399.568 1.53a1.494 1.494 0 10.041 2.987 1.494 1.494 0 00-.04-2.987zM30.326 87.606l.73 8.143c-3.34-.876-5.737-3.465-5.737-6.522 0-.39.042-.78.12-1.163zm395.76.997l-6.855 10.575 8.422-9.328c-.596-.335-1.104-.767-1.568-1.247zm-390.415.415a1.703 1.703 0 10.044 3.405 1.703 1.703 0 00-.044-3.405zm185.59 7.263l7.388 5.88a9.63 9.63 0 00-1.543 5.242c0 2.218.747 4.26 2 5.891l-7.527 8.856 8.45-7.817a9.678 9.678 0 0014.925-12.115 7.919 7.919 0 01.821 3.52c0 4.376-3.53 7.924-7.886 7.924a7.83 7.83 0 01-5.099-1.882l2.67-2.469c.29-.27.685-.398 1.079-.352l.912.107-2.41-2.448c.562-1.113 1.417-2.377 2.43-3.726l-1.732 1.287a.826.826 0 01-.91.05l-3.874-2.269a7.879 7.879 0 016.934-4.146c.082 0 .164.004.245.006a9.653 9.653 0 00-8.677 3.262zm20.774 2.43a1.688 1.688 0 10.02 3.375 1.688 1.688 0 00-.02-3.376zm-11.71 4.784l4.242 3.376-3.029 3.563a7.954 7.954 0 01-1.213-6.939zm91.116 14.618l-4.213 2.047.337.332c.274.272.496.591.654.943l1.609 3.544a10.16 10.16 0 00-2.515 2.124l-.211-.342a2.992 2.992 0 01-.416-1.143l-.042-.292-2.868 3.575.978-.408a.546.546 0 01.607.127l.553.583a9.993 9.993 0 00-1.006 3.354l2.88 2.027c-.129-.817.05-1.851.533-2.846l5.31 5.592-4.346-7.034a6.008 6.008 0 012.236-1.586l1.698 3.743-.844-4.016a6.877 6.877 0 011.877-.186c3.56.12 6.044 2.616 6.367 6.164.531 5.834-3.912 8.305-6.921 8.563 6.761-.002 10.311-5.474 10.413-9.624.142-5.624-4.42-9.878-9.932-9.679a8.945 8.945 0 00-2.695.522l-.85-4.043c-.071-.334-.025-.415.13-.719zm5.006 13.705c-.87 0-1.576.685-1.576 1.53 0 .843.706 1.528 1.576 1.528.87 0 1.575-.685 1.575-1.53l.002.001c0-.844-.705-1.53-1.576-1.53zm136.317 53.172a1.703 1.703 0 10.045 3.405 1.703 1.703 0 00-.045-3.405zm4.102 2.031a7.991 7.991 0 013.693 5.838l-15.533-.083a7.993 7.993 0 013.507-5.64 9.77 9.77 0 00-4.834 5.633l-4.294-.023c-.172-.325-.579-.642-1.035-.956.152 1.297.152 2.736.06 4.262.442-.437.811-.94 1.094-1.494l3.79-.21c-.08.506-.126 1.025-.126 1.554 0 5.255 4.074 9.541 9.186 9.777l.473 7.24.296-7.237c5.167-.175 9.303-4.484 9.303-9.78 0-.9-.124-1.77-.348-2.597l7.199-.4-7.329-.04a9.764 9.764 0 00-5.102-5.844zm3.738 6.367c.007.144.01.289.01.433 0 4.223-3.23 7.676-7.31 7.947l.12-2.968 1.089-.547a27.74 27.74 0 01-3.597.01l1.015.636.187 2.857c-3.868-.334-6.935-3.53-7.145-7.5zM199.19 171.402l3.208 4.776c-3.623 1.33-6.228 4.748-6.347 8.787l-8.153-.112 8.18 1.192c.291 3.576 2.533 6.601 5.667 8.02l-1.898 7.258 2.915-6.864a9.748 9.748 0 003 .471 9.71 9.71 0 007.06-3.03l3.694 4.801-2.86-5.805a9.598 9.598 0 001.824-5.64 9.606 9.606 0 00-.768-3.774 8.16 8.16 0 01.449 2.672 8.164 8.164 0 01-2.12 5.495l-.26-.525a1 1 0 01-.09-.61l.12-.693c-.787.754-1.625 1.414-2.548 1.912l.707.163c.245.056.463.196.616.396l.311.405a8.283 8.283 0 01-5.02 1.684 8.31 8.31 0 01-2.996-.557l.189-.443c.102-.242.29-.437.527-.549l.647-.305c-.987-.239-2.051-.736-3.166-1.413l.546.796c.096.14.127.315.084.478l-.198.756a8.25 8.25 0 01-3.585-4.683l.335.05c.163.023.318.085.452.181l.792.571c-.176-1.036-.196-2.042 0-3.007l-.82.612a.717.717 0 01-.438.141l-.61-.008a8.267 8.267 0 01-.043-.847c0-3.115 1.742-5.825 4.312-7.222l.645.961a.503.503 0 01.084.329l-.103 1.055c.72-.746 1.633-1.375 2.698-1.912l-1.142-.203a.65.65 0 01-.347-.182l-.592-.595a8.323 8.323 0 012.729-.459 8.316 8.316 0 012.867.507 9.718 9.718 0 00-6.151-.606zm19.256 2.041l-8.975 6.391a.884.884 0 01-.499.164l-.94.015a15.857 15.857 0 012.51 2.47l-.007-.8a.956.956 0 01.285-.689zm141.499 6.377c-4.827.708-8.534 4.865-8.534 9.889 0 5.521 4.476 9.997 9.997 9.997a9.966 9.966 0 007.258-3.125l5.363 5.426-4.725-6.169a9.95 9.95 0 002.102-6.13 9.937 9.937 0 00-1.09-4.537c-.529.508-1.225.82-2.084.862.144.678.217 1.37.216 2.064 0 1.825-.492 3.514-1.326 4.893l-1.202-1.569a5.638 5.638 0 00.213-4.932c-.367.12-.757.197-1.29-.001a4.406 4.406 0 01-.464 2.924l-2.045-2.67c.128-.666.026-1.13-.03-1.479l-3.076 2.51.597.11a.96.96 0 01.51.269l2.703 2.734a3.83 3.83 0 01-2.13.652c-2.215 0-4.01-1.901-4.01-4.242 0-1.952 1.249-3.592 2.948-4.086-3.692.746-5.63 4.833-3.869 8.163 1.76 3.33 6.229 4.03 8.924 1.398l1.37 1.386c-1.28 1.462-3.022 2.363-4.942 2.363-3.933 0-7.12-3.77-7.12-8.423 0-4.092 2.467-7.502 5.736-8.264v-.013zm5.34.53a1.688 1.688 0 10.02 3.375 1.688 1.688 0 00-.02-3.376zm-159.454 2.61a1.603 1.603 0 100 3.207 1.603 1.603 0 000-3.206zM46.88 196.6l-3.909.89.996.499a.55.55 0 01.278.33l.72 2.332a9.949 9.949 0 00-2.228.154l-.793-2.011a1.036 1.036 0 01-.07-.46l.064-.824-4.056 2.206 1.336.06c.078.004.15.042.197.105l1.161 1.581c-3.48 1.517-5.913 4.976-5.913 9.003 0 5.426 4.417 9.82 9.864 9.82 4.899 0 8.961-3.558 9.73-8.22-.795 3.229-4.26 5.602-8.353 5.494-4.607-.121-8.26-3.34-8.158-7.189.072-2.756 2.051-5.085 4.86-6.142l3.201 4.36-1.874-4.75a9.844 9.844 0 011.949-.216l1.36 4.406zm3.7 4.482c-1.374 0-2.058 1.666-1.08 2.633.977.966 2.635.264 2.62-1.11a1.53 1.53 0 00-1.54-1.523zm76.287 1.943l-.005 7.644c-3.144 1.26-5.477 4.096-5.999 7.525.69-2.524 3.022-4.517 5.998-5.142l-.01 13.384c-2.865-.605-5.132-2.48-5.907-4.873.648 3.221 2.906 5.865 5.906 7.072l-.002 2.793c0 .412-.13.812-.372 1.145l-.884 1.22a13.328 13.328 0 014.222-.597l-.77-.86a1 1 0 01-.254-.644l-.06-2.512a9.87 9.87 0 001.78.163c5.39 0 9.76-4.339 9.76-9.69 0-5.35-4.37-9.688-9.76-9.688-.823 0-1.622.104-2.386.295-.606-2.972-1.197-5.904-1.257-7.235zm1.981 9.818c4.526 0 8.196 3.09 8.196 6.9 0 3.812-3.67 6.901-8.196 6.901-.06 0-.118-.005-.178-.006l-.328-13.78a9.84 9.84 0 01.506-.015zm3.778 4.919a1.688 1.688 0 10.022 3.376 1.688 1.688 0 00-.022-3.376z"
     id="path2"
     style="fill:#ffffff;opacity:0.1" />
</svg>
