<?xml version="1.0" encoding="UTF-8"?>
<!-- Created with Inkscape (http://www.inkscape.org/) -->
<svg width="300" height="300" version="1.1" viewBox="0 0 79.375 79.375" xmlns="http://www.w3.org/2000/svg">
 <g stroke-linecap="round">
  <path d="m39.688 14.574c-13.859-4.7e-5 -25.114 11.255-25.114 25.114-4.6e-5 13.859 11.255 25.114 25.114 25.114 13.859 4.7e-5 25.114-11.255 25.114-25.114 4.7e-5 -13.859-11.255-25.114-25.114-25.114zm0 1.9345c12.813-4.4e-5 23.179 10.366 23.179 23.179 4.4e-5 12.813-10.366 23.179-23.179 23.179-12.813 4.3e-5 -23.179-10.366-23.179-23.179-4.3e-5 -12.813 10.366-23.179 23.179-23.179zm-15.588 7.5989c2.4827 2.9937 5.1583 5.9456 6.7417 9.134 0.92956-0.58727 1.7835-1.298 2.4073-2.3854-3.4928-1.6379-6.2785-4.2518-9.149-6.7486zm31.176 0c-2.8705 2.4968-5.6561 5.1108-9.149 6.7486 0.62373 1.0874 1.4777 1.7982 2.4073 2.3854 1.5834-3.1884 4.259-6.1404 6.7417-9.134zm-24.434 22.027c-1.5834 3.1884-4.259 6.1404-6.7417 9.134 2.8705-2.4968 5.6561-5.1108 9.149-6.7486-0.62373-1.0874-1.4777-1.7982-2.4073-2.3854zm17.693 0c-0.92956 0.58727-1.7835 1.298-2.4073 2.3854 3.4928 1.6379 6.2785 4.2518 9.149 6.7486-2.4827-2.9937-5.1583-5.9456-6.7417-9.134z" color="#000000" fill="#f60" stroke-dashoffset="55.37" stroke-width=".09314" style="-inkscape-stroke:none;paint-order:fill markers stroke"/>
  <path d="m38.936 3.4597 0.04675 15.824c-3.2771 0.30302-4.8239 0.80308-6.2143 1.3209l0.33236 0.95322c1.4724-0.47005 2.9736-0.87482 4.5778-1.0444l0.01 4.2922c0 13.106-14.634 12.265-20.082 13.181 9.1599 1.0772 18.878 1.5195 20.093 11.628l0.07768 13.238 0.01 4.6921c0.07863 2.0011 0.4723 5.6131 1.8182 8.0788l-3.64e-4 0.29161c0.02831-0.04716 0.05377-0.09794 0.08131-0.14608 0.02753 0.04811 0.05284 0.09894 0.08113 0.14608l-3.64e-4 -0.29161c1.3459-2.4657 1.7396-6.0777 1.8182-8.0788l0.01-4.6921 0.07768-13.238c1.2153-10.109 10.934-10.551 20.094-11.628-5.4471-0.91583-20.082-0.074981-20.082-13.181l0.01019-4.2922c1.6043 0.16954 3.1052 0.57431 4.5777 1.0444l0.33235-0.95322c-1.3904-0.51779-2.937-1.0179-6.2142-1.3209l0.046752-15.824h-0.83262zm0.7513 24.571c1.2465 3.802 3.0833 7.6668 9.8899 9.9013-8.0847 2.9547-8.2822 6.4222-9.8899 9.798-1.6077-3.3759-1.8053-6.8433-9.8901-9.798 6.8066-2.2346 8.6436-6.0993 9.8901-9.9013z" color="#000000" fill="#f00" stroke-dashoffset="14.65" stroke-width="2.2665" style="-inkscape-stroke:none;paint-order:fill markers stroke"/>
 </g>
</svg>
